<svg width="123" height="36" viewBox="0 0 123 36" fill="none" xmlns="http://www.w3.org/2000/svg">
<g clip-path="url(#clip0)">
<g filter="url(#filter0_d)">
<rect y="-0.000244141" width="123" height="36" rx="4" fill="#1D2A53"/>
</g>
<path d="M44.3285 8.91608C44.3441 9.23278 44.2952 9.54935 44.1847 9.84654C44.0741 10.1437 43.9043 10.4153 43.6855 10.6448C43.4402 10.8993 43.144 11.099 42.8162 11.2311C42.4883 11.3631 42.1363 11.4245 41.7832 11.4111C41.2492 11.405 40.7287 11.2419 40.2868 10.9421C39.8448 10.6423 39.5008 10.219 39.2976 9.72512C39.0945 9.23121 39.0411 8.68843 39.1442 8.16442C39.2474 7.64041 39.5024 7.15832 39.8776 6.77821C40.1257 6.52592 40.4227 6.32683 40.7503 6.19306C41.0779 6.0593 41.4294 5.99368 41.7832 6.0002C42.1486 5.99915 42.5103 6.07276 42.8463 6.2165C43.1582 6.34292 43.4357 6.54145 43.6561 6.79582L43.2009 7.25106C43.0271 7.04712 42.8089 6.88575 42.5629 6.77936C42.317 6.67297 42.05 6.62439 41.7824 6.63737C41.513 6.63598 41.2461 6.68896 40.9976 6.79313C40.7492 6.89729 40.5243 7.05051 40.3364 7.2436C40.1486 7.4367 40.0016 7.6657 39.9043 7.91692C39.8071 8.16814 39.7614 8.4364 39.7702 8.70565C39.7641 9.10887 39.8778 9.50485 40.0968 9.84343C40.3159 10.182 40.6305 10.448 41.0009 10.6076C41.3712 10.7672 41.7806 10.8133 42.1771 10.7401C42.5737 10.6669 42.9396 10.4776 43.2286 10.1963C43.4943 9.90964 43.6483 9.53721 43.6628 9.14664H41.7807V8.5254H44.2908C44.3149 8.65425 44.3276 8.78499 44.3285 8.91608V8.91608Z" fill="white"/>
<path d="M48.3065 6.75306H45.9473V8.39545H48.0743V9.01668H45.9473V10.6591H48.3065V11.2954H45.2825V6.11673H48.3065V6.75306Z" fill="white"/>
<path d="M51.1127 11.2962H50.4462V6.75306H49V6.11673H52.5589V6.75306H51.1127V11.2962Z" fill="white"/>
<path d="M55.1343 11.2962V6.11673H55.7991V11.2962H55.1343Z" fill="white"/>
<path d="M58.7503 11.2962H58.0846V6.75306H56.6384V6.11673H60.1974V6.75306H58.7503V11.2962Z" fill="white"/>
<path d="M66.9355 10.6272C66.4314 11.1296 65.7487 11.4117 65.037 11.4117C64.3253 11.4117 63.6426 11.1296 63.1384 10.6272C62.6483 10.1078 62.3752 9.42066 62.3752 8.70649C62.3752 7.99231 62.6483 7.30516 63.1384 6.78576C63.6416 6.28276 64.3239 6.00018 65.0353 6.00018C65.7467 6.00018 66.429 6.28276 66.9321 6.78576C67.4232 7.30403 67.6969 7.99084 67.6969 8.70481C67.6969 9.41878 67.4232 10.1056 66.9321 10.6239L66.9355 10.6272ZM63.6297 10.1929C64.0032 10.5657 64.5093 10.775 65.037 10.775C65.5646 10.775 66.0707 10.5657 66.4442 10.1929C66.8146 9.78651 67.02 9.25641 67.02 8.70649C67.02 8.15657 66.8146 7.62647 66.4442 7.22004C66.0707 6.84728 65.5646 6.63793 65.037 6.63793C64.5093 6.63793 64.0032 6.84728 63.6297 7.22004C63.2598 7.62673 63.0548 8.15673 63.0548 8.70649C63.0548 9.25624 63.2598 9.78624 63.6297 10.1929V10.1929Z" fill="white"/>
<path d="M68.6323 11.2962V6.11673H69.443L71.9582 10.1451H71.9867L71.9582 9.14747V6.11673H72.6239V11.2962H71.9314L69.298 7.07164H69.2695L69.298 8.07015V11.2962H68.6323Z" fill="white"/>
<path d="M62.2113 18.8509C61.4859 18.8544 60.7778 19.0726 60.1764 19.4781C59.575 19.8837 59.1072 20.4582 58.832 21.1294C58.5568 21.8005 58.4867 22.5381 58.6303 23.2491C58.7739 23.9601 59.125 24.6126 59.6391 25.1243C60.1532 25.636 60.8074 25.9839 61.5191 26.1241C62.2307 26.2643 62.968 26.1906 63.6378 25.9122C64.3076 25.6339 64.88 25.1633 65.2826 24.56C65.6852 23.9566 65.9001 23.2475 65.9001 22.5221C65.9073 22.0366 65.8167 21.5545 65.6336 21.1047C65.4505 20.6548 65.1788 20.2465 64.8346 19.9039C64.4903 19.5613 64.0807 19.2915 63.63 19.1106C63.1793 18.9297 62.6968 18.8414 62.2113 18.8509ZM62.2113 24.7464C61.7643 24.7784 61.3181 24.675 60.9307 24.4498C60.5434 24.2247 60.2328 23.888 60.0394 23.4838C59.8461 23.0796 59.7789 22.6266 59.8467 22.1837C59.9145 21.7407 60.1141 21.3285 60.4194 21.0006C60.7248 20.6727 61.1219 20.4444 61.5589 20.3454C61.9959 20.2463 62.4525 20.2812 62.8694 20.4454C63.2864 20.6096 63.6442 20.8955 63.8963 21.2659C64.1484 21.6363 64.2831 22.0741 64.2829 22.5221C64.2965 22.8051 64.2533 23.088 64.156 23.354C64.0586 23.62 63.909 23.8639 63.716 24.0713C63.5229 24.2786 63.2903 24.4452 63.0319 24.5613C62.7735 24.6774 62.4945 24.7406 62.2113 24.7472V24.7464ZM54.172 18.8509C53.4467 18.8544 52.7386 19.0726 52.1372 19.4781C51.5358 19.8837 51.068 20.4582 50.7928 21.1294C50.5176 21.8005 50.4474 22.5381 50.5911 23.2491C50.7347 23.9601 51.0857 24.6126 51.5999 25.1243C52.114 25.636 52.7682 25.9839 53.4799 26.1241C54.1915 26.2643 54.9288 26.1906 55.5986 25.9122C56.2684 25.6339 56.8407 25.1633 57.2434 24.56C57.646 23.9566 57.8609 23.2475 57.8609 22.5221C57.8681 22.0366 57.7774 21.5545 57.5944 21.1047C57.4113 20.6548 57.1396 20.2465 56.7953 19.9039C56.4511 19.5613 56.0415 19.2915 55.5908 19.1106C55.1401 18.9297 54.6576 18.8414 54.172 18.8509ZM54.172 24.7464C53.7251 24.7784 53.2789 24.675 52.8915 24.4498C52.5042 24.2247 52.1936 23.888 52.0002 23.4838C51.8069 23.0796 51.7397 22.6266 51.8075 22.1837C51.8753 21.7407 52.0748 21.3285 52.3802 21.0006C52.6856 20.6727 53.0827 20.4444 53.5196 20.3454C53.9566 20.2463 54.4133 20.2812 54.8302 20.4454C55.2471 20.6096 55.6049 20.8955 55.857 21.2659C56.1091 21.6363 56.2439 22.0741 56.2437 22.5221C56.2573 22.8051 56.2141 23.088 56.1168 23.354C56.0194 23.62 55.8698 23.8639 55.6767 24.0713C55.4837 24.2786 55.2511 24.4452 54.9927 24.5613C54.7343 24.6774 54.4552 24.7406 54.172 24.7472V24.7464ZM44.6086 19.9777V21.5345H48.3352C48.2815 22.2647 47.9829 22.9554 47.4876 23.4947C47.1141 23.8754 46.6649 24.1736 46.169 24.37C45.6731 24.5664 45.1416 24.6566 44.6086 24.6349C43.5199 24.6194 42.4809 24.176 41.7165 23.4006C40.952 22.6252 40.5235 21.5801 40.5235 20.4912C40.5235 19.4023 40.952 18.3572 41.7165 17.5818C42.4809 16.8064 43.5199 16.363 44.6086 16.3475C45.6548 16.3338 46.6642 16.7336 47.4172 17.46L48.513 16.3617C47.999 15.8529 47.3886 15.4517 46.7176 15.1818C46.0466 14.9118 45.3285 14.7786 44.6053 14.7898C43.0933 14.7898 41.6432 15.3904 40.5741 16.4596C39.5049 17.5287 38.9043 18.9788 38.9043 20.4908C38.9043 22.0028 39.5049 23.4528 40.5741 24.522C41.6432 25.5911 43.0933 26.1917 44.6053 26.1917C45.3438 26.2224 46.0803 26.0957 46.766 25.8199C47.4518 25.5441 48.071 25.1256 48.5825 24.5921C49.492 23.603 49.9785 22.2974 49.9382 20.9544C49.9419 20.6283 49.9138 20.3025 49.8544 19.9819L44.6086 19.9777ZM83.719 21.1875C83.4983 20.5225 83.0782 19.9417 82.5159 19.5238C81.9536 19.106 81.2763 18.8713 80.576 18.8517C80.1042 18.8546 79.638 18.9531 79.2054 19.1413C78.7729 19.3295 78.383 19.6035 78.0593 19.9466C77.7357 20.2898 77.4849 20.6951 77.3224 21.1379C77.1598 21.5807 77.0887 22.0519 77.1134 22.523C77.1028 23.0057 77.1896 23.4856 77.3686 23.934C77.5475 24.3824 77.8151 24.7901 78.1552 25.1328C78.4953 25.4755 78.901 25.7461 79.348 25.9285C79.7951 26.1108 80.2743 26.2012 80.757 26.1943C81.3619 26.1976 81.958 26.0507 82.492 25.7666C83.026 25.4826 83.481 25.0704 83.8163 24.567L82.5646 23.7286C82.3772 24.04 82.112 24.2974 81.7951 24.4753C81.4782 24.6533 81.1205 24.7459 80.757 24.7439C80.3836 24.7586 80.0143 24.661 79.6969 24.4638C79.3794 24.2665 79.1284 23.9786 78.9763 23.6372L83.8859 21.6058L83.719 21.1875ZM78.7122 22.4115C78.6947 22.1442 78.7307 21.8761 78.8181 21.6229C78.9055 21.3697 79.0426 21.1365 79.2214 20.937C79.4001 20.7374 79.6169 20.5756 79.859 20.461C80.1011 20.3464 80.3637 20.2812 80.6313 20.2694C80.9099 20.2508 81.1878 20.3148 81.4303 20.4534C81.6728 20.5919 81.869 20.7988 81.9945 21.0483L78.7122 22.4115ZM74.7215 25.9712H76.3337V15.1788H74.7215V25.9712ZM72.0781 19.6717H72.0228C71.7776 19.4054 71.4783 19.1945 71.1451 19.0531C70.8118 18.9117 70.4522 18.8431 70.0903 18.8517C69.1438 18.8922 68.2495 19.2967 67.594 19.9807C66.9386 20.6648 66.5727 21.5756 66.5727 22.523C66.5727 23.4704 66.9386 24.3812 67.594 25.0652C68.2495 25.7493 69.1438 26.1538 70.0903 26.1943C70.454 26.2035 70.8154 26.1332 71.1491 25.9884C71.4829 25.8436 71.7811 25.6278 72.0228 25.3559H72.0781V25.8849C72.0781 27.2892 71.3278 28.0404 70.118 28.0404C69.7147 28.0305 69.3235 27.9009 68.9942 27.668C68.6648 27.4351 68.4122 27.1094 68.2685 26.7325L66.8643 27.3194C67.1291 27.9639 67.5803 28.5146 68.1602 28.9011C68.74 29.2875 69.422 29.4919 70.1188 29.4882C72.0102 29.4882 73.6099 28.3757 73.6099 25.6644V19.0731H72.0781V19.6717ZM70.227 24.7472C69.6685 24.7012 69.1478 24.4468 68.7681 24.0346C68.3885 23.6224 68.1778 23.0825 68.1778 22.5221C68.1778 21.9618 68.3885 21.4219 68.7681 21.0097C69.1478 20.5975 69.6685 20.3431 70.227 20.2971C70.5044 20.3107 70.7761 20.3801 71.0261 20.501C71.2761 20.6219 71.4992 20.7919 71.6821 21.0009C71.8651 21.2099 72.004 21.4535 72.0908 21.7173C72.1775 21.9811 72.2103 22.2597 72.1871 22.5364C72.2089 22.8114 72.175 23.0879 72.0874 23.3495C71.9998 23.6111 71.8603 23.8523 71.6773 24.0587C71.4943 24.2651 71.2715 24.4325 71.0223 24.5508C70.7731 24.6691 70.5026 24.7359 70.227 24.7472ZM91.2703 15.1805H87.4138V25.9712H89.0235V21.8825H91.2728C92.1622 21.8825 93.0152 21.5291 93.6441 20.9002C94.273 20.2713 94.6264 19.4184 94.6264 18.5289C94.6264 17.6395 94.273 16.7866 93.6441 16.1577C93.0152 15.5287 92.1622 15.1754 91.2728 15.1754L91.2703 15.1805ZM91.3114 20.3784H89.0201V16.6786H91.3114C91.8019 16.6786 92.2723 16.8735 92.6192 17.2203C92.966 17.5672 93.1609 18.0376 93.1609 18.5281C93.1609 19.0186 92.966 19.489 92.6192 19.8359C92.2723 20.1827 91.8019 20.3776 91.3114 20.3776V20.3784ZM101.266 18.8291C100.678 18.7947 100.093 18.9327 99.5826 19.2261C99.0719 19.5195 98.658 19.9555 98.3915 20.4807L99.8218 21.0785C99.9636 20.8176 100.178 20.6038 100.44 20.4632C100.701 20.3227 100.998 20.2614 101.294 20.287C101.703 20.2473 102.11 20.3712 102.428 20.6316C102.745 20.892 102.947 21.2677 102.988 21.6762V21.7869C102.471 21.5117 101.896 21.3677 101.311 21.3677C99.7698 21.3677 98.2004 22.2145 98.2004 23.799C98.2152 24.1329 98.2971 24.4605 98.4411 24.7622C98.585 25.0638 98.7882 25.3335 99.0385 25.555C99.2888 25.7766 99.5811 25.9456 99.898 26.052C100.215 26.1583 100.55 26.1999 100.883 26.1741C101.289 26.1981 101.694 26.1128 102.055 25.9271C102.417 25.7415 102.722 25.4623 102.939 25.1186H102.994V25.952H104.549V21.8154C104.548 19.8997 103.118 18.8316 101.272 18.8316L101.266 18.8291ZM101.072 24.743C100.544 24.743 99.8084 24.4798 99.8084 23.8275C99.8084 22.9942 100.724 22.6747 101.516 22.6747C102.03 22.6611 102.538 22.7856 102.988 23.0352C102.929 23.5025 102.704 23.9329 102.353 24.2472C102.003 24.5615 101.55 24.7384 101.079 24.7455L101.072 24.743ZM110.21 19.0647L108.366 23.7437H108.31L106.394 19.0647H104.658L107.532 25.604L105.894 29.2418H107.571L112 19.0655L110.21 19.0647ZM95.7062 25.9687H97.3167V15.1796H95.7062V25.9687Z" fill="white"/>
<path d="M12.4022 6.58122C12.1195 6.92001 11.9768 7.35391 12.0031 7.79435V26.8851C11.9767 27.3256 12.1194 27.7595 12.4022 28.0982L12.4659 28.1603L23.1603 17.4659V17.2144L12.4659 6.51834L12.4022 6.58122Z" fill="url(#paint0_linear)"/>
<path d="M26.725 21.0324L23.1619 17.4659V17.2144L26.7275 13.6487L26.8113 13.6957L31.0351 16.0951C32.2407 16.7809 32.2407 17.9018 31.0351 18.5876L26.8113 20.9871L26.725 21.0324Z" fill="url(#paint1_linear)"/>
<path d="M26.8063 20.9862L23.1602 17.3393L12.4021 28.0982C12.6481 28.3151 12.9622 28.4391 13.29 28.4488C13.6179 28.4584 13.9387 28.3531 14.1971 28.151L26.8063 20.9862Z" fill="url(#paint2_linear)"/>
<path d="M26.8063 13.694L14.1971 6.52922C13.9388 6.32701 13.6179 6.22158 13.29 6.23123C12.9622 6.24088 12.648 6.36499 12.4021 6.58204L23.1602 17.3401L26.8063 13.694Z" fill="url(#paint3_linear)"/>
<path opacity="0.2" d="M26.7268 20.9058L14.1972 28.0244C13.949 28.2136 13.646 28.3167 13.334 28.3184C13.0219 28.3201 12.7178 28.2201 12.4676 28.0337L12.4031 28.0974L12.4668 28.1603C12.717 28.3467 13.0211 28.4467 13.3331 28.445C13.6452 28.4433 13.9482 28.3402 14.1964 28.151L26.8064 20.9862L26.7268 20.9058Z" fill="black"/>
<path opacity="0.12" d="M12.4022 27.9725C12.1194 27.6337 11.9767 27.1998 12.0031 26.7593V26.8859C11.9766 27.3261 12.1194 27.7598 12.4022 28.0982L12.4667 28.0345L12.4022 27.9725Z" fill="black"/>
<path opacity="0.12" d="M31.0301 18.4602L26.7258 20.9058L26.8097 20.9896L31.0334 18.5902C31.2819 18.4814 31.4965 18.308 31.6551 18.0879C31.8136 17.8679 31.9102 17.6094 31.9347 17.3393V17.3393C31.8816 17.5837 31.7721 17.8122 31.6151 18.0068C31.458 18.2014 31.2577 18.3567 31.0301 18.4602Z" fill="black"/>
<path opacity="0.25" d="M14.1966 6.65549L31.0304 16.2206C31.258 16.324 31.4582 16.4791 31.6153 16.6736C31.7723 16.868 31.8818 17.0964 31.9351 17.3406C31.9094 17.0715 31.8119 16.8142 31.6528 16.5956C31.4936 16.377 31.2787 16.2052 31.0304 16.0982L14.1966 6.52973C12.9902 5.84393 12.0034 6.41403 12.0034 7.79484V7.92144C12.0034 6.54063 12.9902 5.97053 14.1966 6.65549Z" fill="white"/>
</g>
<defs>
<filter id="filter0_d" x="-16" y="-12.0002" width="155" height="68" filterUnits="userSpaceOnUse" color-interpolation-filters="sRGB">
<feFlood flood-opacity="0" result="BackgroundImageFix"/>
<feColorMatrix in="SourceAlpha" type="matrix" values="0 0 0 0 0 0 0 0 0 0 0 0 0 0 0 0 0 0 127 0" result="hardAlpha"/>
<feOffset dy="4"/>
<feGaussianBlur stdDeviation="8"/>
<feColorMatrix type="matrix" values="0 0 0 0 0.337255 0 0 0 0 0.486275 0 0 0 0 0.678431 0 0 0 0.16 0"/>
<feBlend mode="normal" in2="BackgroundImageFix" result="effect1_dropShadow"/>
<feBlend mode="normal" in="SourceGraphic" in2="effect1_dropShadow" result="shape"/>
</filter>
<linearGradient id="paint0_linear" x1="22.2116" y1="149.658" x2="5.08716" y2="145.107" gradientUnits="userSpaceOnUse">
<stop stop-color="#00A0FF"/>
<stop offset="0.007" stop-color="#00A1FF"/>
<stop offset="0.26" stop-color="#00BEFF"/>
<stop offset="0.512" stop-color="#00D2FF"/>
<stop offset="0.76" stop-color="#00DFFF"/>
<stop offset="1" stop-color="#00E3FF"/>
</linearGradient>
<linearGradient id="paint1_linear" x1="32.6064" y1="139.894" x2="11.7073" y2="139.894" gradientUnits="userSpaceOnUse">
<stop stop-color="#FFE000"/>
<stop offset="0.409" stop-color="#FFBD00"/>
<stop offset="0.775" stop-color="#FFA500"/>
<stop offset="1" stop-color="#FF9C00"/>
</linearGradient>
<linearGradient id="paint2_linear" x1="24.8185" y1="138.028" x2="11.0646" y2="114.872" gradientUnits="userSpaceOnUse">
<stop stop-color="#FF3A44"/>
<stop offset="1" stop-color="#C31162"/>
</linearGradient>
<linearGradient id="paint3_linear" x1="9.69411" y1="157.131" x2="15.8405" y2="146.793" gradientUnits="userSpaceOnUse">
<stop stop-color="#32A071"/>
<stop offset="0.068" stop-color="#2DA771"/>
<stop offset="0.476" stop-color="#15CF74"/>
<stop offset="0.801" stop-color="#06E775"/>
<stop offset="1" stop-color="#00F076"/>
</linearGradient>
<clipPath id="clip0">
<rect width="123" height="36" fill="white"/>
</clipPath>
</defs>
</svg>
