<svg width="123" height="36" viewBox="0 0 123 36" fill="none" xmlns="http://www.w3.org/2000/svg">
<g clip-path="url(#clip0)">
<g filter="url(#filter0_d)">
<rect width="123" height="36" rx="4" fill="#1C2951"/>
</g>
<path d="M27.1807 17.3481C27.2008 16.5265 27.4344 15.7243 27.8584 15.0203C28.2824 14.3163 28.8823 13.7347 29.5991 13.3328C29.1175 12.6992 28.4992 12.1825 27.7901 11.8211C27.081 11.4597 26.2996 11.263 25.5039 11.2457C23.7813 11.0758 22.1104 12.2175 21.2321 12.2175C20.3368 12.2175 18.9853 11.2627 17.5294 11.2907C16.6047 11.3098 15.6998 11.5615 14.8981 12.0226C14.0964 12.4838 13.4238 13.1394 12.9424 13.9291C10.9581 17.1672 12.4378 21.9266 14.3389 24.5471C15.2902 25.8289 16.4013 27.2611 17.8555 27.2101C19.2784 27.1541 19.8093 26.3547 21.5285 26.3547C23.2274 26.3547 23.7294 27.2101 25.2134 27.1778C26.7424 27.1541 27.7031 25.8901 28.6205 24.5964C29.2996 23.6912 29.8259 22.6808 30.1784 21.6055C29.3102 21.2782 28.5604 20.6975 28.0264 19.9388C27.4923 19.1801 27.1986 18.2784 27.1833 17.3506L27.1807 17.3481Z" fill="white"/>
<path d="M24.3768 9.52504C24.7855 9.06872 25.0974 8.53436 25.2939 7.95419C25.4904 7.37403 25.5674 6.76007 25.5202 6.14935C24.2645 6.26714 23.0945 6.83779 22.2286 7.7548C21.8199 8.18682 21.5047 8.69849 21.3027 9.25783C21.1008 9.81717 21.0163 10.4122 21.0547 11.0056C21.6829 11.0159 22.3057 10.8887 22.8796 10.6329C23.4534 10.3772 23.9645 9.99905 24.3768 9.52504V9.52504Z" fill="white"/>
<path d="M44.2555 24.0918H39.5835L38.4623 27.2135H36.4856L40.9095 15.661H42.9651L47.389 27.2135H45.3767L44.2555 24.0918ZM40.0685 22.6477H43.7679L41.9424 17.5816H41.8991L40.0685 22.6477Z" fill="white"/>
<path d="M56.9419 23.0029C56.9419 25.6192 55.4562 27.3002 53.2137 27.3002C52.6555 27.3339 52.0987 27.2144 51.6034 26.9549C51.108 26.6953 50.693 26.3054 50.4029 25.8273H50.3604V29.9981H48.5273V18.7931H50.3027V20.193H50.3367C50.6388 19.7174 51.0607 19.3295 51.56 19.0683C52.0593 18.8071 52.6184 18.6818 53.1814 18.7047C55.4478 18.7047 56.9419 20.3943 56.9419 23.0029ZM55.057 23.0029C55.057 21.2981 54.1226 20.1777 52.6964 20.1777C51.2957 20.1777 50.3528 21.3219 50.3528 23.0029C50.3528 24.7018 51.2948 25.8358 52.6964 25.8358C54.1226 25.8358 55.057 24.723 55.057 23.0029Z" fill="white"/>
<path d="M66.7725 23.0029C66.7725 25.6192 65.286 27.3002 63.0443 27.3002C62.4859 27.3343 61.9288 27.2151 61.4332 26.9557C60.9375 26.6963 60.5221 26.3064 60.2318 25.8282H60.1893V29.9989H58.363V18.7931H60.1384V20.193H60.1724C60.4745 19.7174 60.8964 19.3295 61.3957 19.0683C61.895 18.8071 62.4541 18.6818 63.0171 18.7047C65.2801 18.7047 66.7725 20.3943 66.7725 23.0029ZM64.8876 23.0029C64.8876 21.2981 63.9532 20.1777 62.527 20.1777C61.1263 20.1777 60.1834 21.3219 60.1834 23.0029C60.1834 24.7018 61.1254 25.8358 62.527 25.8358C63.9549 25.8358 64.8893 24.723 64.8893 23.0029H64.8876Z" fill="white"/>
<path d="M73.2724 23.9961C73.4083 25.1412 74.589 25.8938 76.2013 25.8938C77.7473 25.8938 78.8592 25.142 78.8592 24.11C78.8592 23.2138 78.1881 22.6769 76.6005 22.3091L75.0129 21.949C72.7627 21.4393 71.7188 20.4446 71.7188 18.8358C71.7188 16.843 73.5612 15.4745 76.1766 15.4745C78.7666 15.4745 80.5419 16.843 80.6014 18.8358H78.7496C78.6392 17.6831 77.6283 16.9874 76.1512 16.9874C74.674 16.9874 73.6631 17.6916 73.6631 18.716C73.6631 19.5323 74.3087 20.0131 75.8878 20.3809L77.2376 20.6935C79.752 21.2541 80.7951 22.2055 80.7951 23.895C80.7951 26.056 78.9705 27.4092 76.0662 27.4092C73.348 27.4092 71.5141 26.0875 71.3943 23.9987L73.2724 23.9961Z" fill="white"/>
<path d="M84.7553 16.8005V18.7933H86.4541V20.1618H84.7553V24.804C84.7553 25.5251 85.095 25.8615 85.8425 25.8615C86.0441 25.8581 86.2452 25.8448 86.4456 25.8216V27.1807C86.1092 27.2399 85.7679 27.2666 85.4263 27.2605C83.6178 27.2605 82.912 26.6201 82.912 24.9874V20.1618H81.614V18.7933H82.9128V16.8005H84.7553Z" fill="white"/>
<path d="M87.436 23.0029C87.428 22.4413 87.5318 21.8838 87.7411 21.3628C87.9505 20.8417 88.2614 20.3674 88.6557 19.9675C89.0499 19.5676 89.5197 19.2501 90.0378 19.0333C90.5559 18.8166 91.1118 18.705 91.6734 18.705C92.235 18.705 92.791 18.8166 93.309 19.0333C93.8271 19.2501 94.2969 19.5676 94.6912 19.9675C95.0855 20.3674 95.3963 20.8417 95.6057 21.3628C95.8151 21.8838 95.9188 22.4413 95.9109 23.0029C95.9109 25.6591 94.2714 27.3172 91.673 27.3172C89.0745 27.3172 87.436 25.6591 87.436 23.0029ZM94.0421 23.0029C94.0421 21.1859 93.1587 20.1147 91.673 20.1147C90.1873 20.1147 89.3039 21.1952 89.3039 23.0029C89.3039 24.8275 90.1873 25.891 91.673 25.891C93.1587 25.891 94.0421 24.8266 94.0421 23.0029Z" fill="white"/>
<path d="M97.4229 18.7941H99.1719V20.2272H99.2143C99.3481 19.7681 99.6333 19.3679 100.024 19.0917C100.414 18.8154 100.886 18.6794 101.363 18.7058C101.575 18.7051 101.785 18.7267 101.992 18.7704V20.3843C101.724 20.3073 101.446 20.2721 101.168 20.2798C100.905 20.2684 100.642 20.3119 100.396 20.4073C100.15 20.5028 99.9268 20.6483 99.7401 20.8345C99.5605 21.0136 99.4238 21.2311 99.3402 21.4706C99.2566 21.7101 99.2284 21.9654 99.2577 22.2174V27.2121H97.4229V18.7941Z" fill="white"/>
<path d="M110.443 24.7388C110.197 26.2678 108.617 27.3161 106.597 27.3161C103.998 27.3161 102.385 25.6749 102.385 23.0417C102.385 20.4084 104.007 18.6874 106.52 18.6874C108.992 18.6874 110.546 20.2878 110.546 22.8403V23.4349H104.242V23.5394C104.214 23.8524 104.256 24.1677 104.365 24.4624C104.474 24.7571 104.648 25.0239 104.872 25.2434C105.106 25.4713 105.384 25.6491 105.689 25.7659C105.994 25.8827 106.319 25.9362 106.645 25.923C107.07 25.9664 107.497 25.8755 107.867 25.6631C108.238 25.4506 108.532 25.1274 108.709 24.7388H110.443ZM104.242 22.2262H108.709C108.724 21.9446 108.678 21.663 108.574 21.4008C108.471 21.1385 108.312 20.9017 108.108 20.7065C107.897 20.5036 107.647 20.3445 107.374 20.2385C107.101 20.1325 106.81 20.0817 106.517 20.089C105.919 20.0819 105.342 20.3045 104.903 20.7108C104.694 20.9041 104.527 21.1384 104.412 21.3992C104.298 21.6599 104.239 21.9414 104.238 22.2262H104.242Z" fill="white"/>
<path d="M39.8382 6.50019C40.215 6.47259 40.5934 6.52183 40.9506 6.64493C41.3078 6.76802 41.6362 6.9624 41.9159 7.21627C42.1751 7.45019 42.3735 7.74358 42.4941 8.0712C42.6147 8.39881 42.6539 8.75082 42.6082 9.09694C42.6082 10.7669 41.5889 11.7302 39.8382 11.7302H37.7146V6.50019H39.8382ZM38.6261 10.9878H39.7363C40.0052 11.0047 40.2748 10.9664 40.5284 10.8752C40.782 10.7841 41.0143 10.642 41.2109 10.4577C41.3929 10.2877 41.5306 10.0758 41.612 9.84038C41.6934 9.60499 41.7161 9.35328 41.6781 9.10713C41.7137 8.86189 41.6892 8.61167 41.6066 8.37801C41.524 8.14436 41.3859 7.93428 41.2041 7.76586C41.0079 7.58322 40.7766 7.4423 40.5243 7.35163C40.272 7.26096 40.0039 7.22242 39.7363 7.23835H38.6261V10.9878Z" fill="white"/>
<path d="M43.642 9.75152C43.612 9.39253 43.6897 9.03275 43.8653 8.71817C44.0408 8.40359 44.3061 8.14851 44.6274 7.98552C44.9683 7.80122 45.3497 7.70471 45.7372 7.70471C46.1247 7.70471 46.5061 7.80122 46.847 7.98552C47.1682 8.14851 47.4336 8.40359 47.6091 8.71817C47.7846 9.03275 47.8624 9.39253 47.8323 9.75152C47.8632 10.1109 47.7861 10.4713 47.6108 10.7865C47.4356 11.1017 47.1702 11.3575 46.8487 11.5209C46.5075 11.7057 46.1256 11.8024 45.7376 11.8024C45.3496 11.8024 44.9677 11.7057 44.6265 11.5209C44.305 11.3576 44.0396 11.1021 43.8642 10.787C43.6888 10.4719 43.6114 10.1117 43.642 9.75237V9.75152ZM46.9311 9.75152C46.9311 8.89613 46.4987 8.39241 45.7419 8.39241C44.985 8.39241 44.5526 8.89273 44.5526 9.75152C44.5526 10.6103 44.9774 11.1106 45.7419 11.1106C46.5064 11.1106 46.9311 10.6112 46.9311 9.75152Z" fill="white"/>
<path d="M53.4029 11.7277H52.4931L51.5749 8.82256H51.5052L50.5904 11.7277H49.69L48.4651 7.78284H49.3545L50.1504 10.7933H50.2158L51.1289 7.78284H51.9699L52.883 10.7933H52.9527L53.7444 7.78284H54.621L53.4029 11.7277Z" fill="white"/>
<path d="M55.6531 7.78456H56.4974V8.41144H56.5628C56.6905 8.17711 56.8843 7.98554 57.1201 7.86062C57.3559 7.73569 57.6232 7.68295 57.8888 7.70896C58.1006 7.69274 58.3135 7.72035 58.5142 7.79007C58.7148 7.85978 58.899 7.9701 59.0551 8.11414C59.1999 8.24666 59.3097 8.41299 59.3746 8.59826C59.4396 8.78353 59.4576 8.982 59.4272 9.17594V11.7294H58.5488V9.36877C58.5675 9.23893 58.5555 9.10652 58.5137 8.98216C58.472 8.85781 58.4016 8.74498 58.3084 8.65272C58.2151 8.56046 58.1016 8.49135 57.9768 8.45092C57.852 8.41049 57.7194 8.39988 57.5898 8.41994C57.446 8.41273 57.3023 8.43409 57.1668 8.48279C57.0314 8.53149 56.9069 8.60656 56.8007 8.70365C56.7021 8.79314 56.6261 8.90465 56.5789 9.0291C56.5317 9.15355 56.5145 9.2874 56.5289 9.41973V11.7277H55.6531V7.78456Z" fill="white"/>
<path d="M60.8237 6.2428H61.7004V11.7277H60.8237V6.2428Z" fill="white"/>
<path d="M62.9191 9.75249C62.8891 9.39351 62.9668 9.03373 63.1424 8.71915C63.3179 8.40457 63.5832 8.14948 63.9045 7.9865C64.2454 7.8022 64.6268 7.70569 65.0143 7.70569C65.4018 7.70569 65.7832 7.8022 66.1241 7.9865C66.4453 8.14948 66.7107 8.40457 66.8862 8.71915C67.0617 9.03373 67.1395 9.39351 67.1094 9.75249C67.1401 10.1117 67.0629 10.4719 66.8877 10.787C66.7124 11.102 66.4472 11.3576 66.1258 11.521C65.7846 11.7058 65.4027 11.8025 65.0147 11.8025C64.6267 11.8025 64.2448 11.7058 63.9036 11.521C63.5821 11.3578 63.3167 11.1022 63.1413 10.7871C62.9659 10.4721 62.8885 10.1118 62.9191 9.75249V9.75249ZM66.2082 9.75249C66.2082 8.8971 65.7758 8.39338 65.019 8.39338C64.2621 8.39338 63.8297 8.89371 63.8297 9.75249C63.8297 10.6113 64.2545 11.1116 65.019 11.1116C65.7835 11.1116 66.2082 10.6121 66.2082 9.75249Z" fill="white"/>
<path d="M68.033 10.6115C68.033 9.90136 68.6276 9.49192 69.6851 9.43416L70.8888 9.37215V9.03238C70.8888 8.61615 70.5787 8.38085 69.979 8.38085C69.4898 8.38085 69.15 8.54055 69.0531 8.81917H68.2037C68.2929 8.13961 69.0115 7.70724 70.019 7.70724C71.1326 7.70724 71.7612 8.19992 71.7612 9.03323V11.7285H70.9211V11.1738H70.8514C70.6974 11.3791 70.4949 11.5431 70.262 11.6512C70.0292 11.7592 69.7732 11.808 69.5169 11.7931C69.1463 11.8299 68.7757 11.7232 68.4815 11.4949C68.3458 11.3909 68.2353 11.2575 68.1582 11.1049C68.0811 10.9522 68.0395 10.7842 68.0364 10.6132L68.033 10.6115ZM70.8888 10.2717V9.94213L69.804 10.0041C69.1924 10.0407 68.9147 10.225 68.9147 10.5733C68.9147 10.9215 69.2612 11.1347 69.7386 11.1347C70.0167 11.1614 70.2948 11.0849 70.5201 10.9198C70.6245 10.8446 70.7116 10.7477 70.7753 10.6359C70.8391 10.5241 70.878 10.3999 70.8896 10.2717H70.8888Z" fill="white"/>
<path d="M72.9147 9.75355C72.8831 9.49475 72.9075 9.23219 72.9863 8.98366C73.0651 8.73513 73.1964 8.50644 73.3713 8.3131C73.5462 8.11975 73.7606 7.96627 74 7.86305C74.2394 7.75984 74.4982 7.70931 74.7589 7.71488C75.0265 7.69884 75.2936 7.75455 75.5326 7.87625C75.7715 7.99796 75.9736 8.18124 76.118 8.40718H76.1868V6.2428H77.0634V11.7277H76.2233V11.1042H76.1537C75.9993 11.3286 75.7899 11.5098 75.5456 11.6302C75.3012 11.7507 75.0301 11.8065 74.758 11.7922C74.4973 11.7982 74.2383 11.748 73.9987 11.6449C73.7591 11.5418 73.5446 11.3883 73.3697 11.1949C73.1947 11.0014 73.0636 10.7725 72.9851 10.5238C72.9066 10.2751 72.8826 10.0124 72.9147 9.75355V9.75355ZM73.8202 9.75355C73.8202 10.5902 74.2645 11.094 75.0095 11.094C75.18 11.0981 75.3494 11.0652 75.506 10.9974C75.6625 10.9297 75.8025 10.8288 75.9162 10.7016C76.0299 10.5745 76.1147 10.4242 76.1647 10.2611C76.2146 10.098 76.2285 9.92596 76.2055 9.75694C76.2266 9.58811 76.2113 9.4167 76.1606 9.25429C76.1098 9.09188 76.0248 8.94225 75.9113 8.81552C75.7977 8.68878 75.6583 8.58788 75.5025 8.51963C75.3466 8.45139 75.1779 8.41738 75.0078 8.41992C74.8374 8.41546 74.6682 8.44824 74.5118 8.51599C74.3554 8.58373 74.2157 8.68479 74.1025 8.81212C73.9892 8.93944 73.9052 9.08996 73.8561 9.25315C73.8071 9.41635 73.7943 9.58828 73.8185 9.75694L73.8202 9.75355Z" fill="white"/>
<path d="M80.6922 9.75152C80.6622 9.39253 80.7399 9.03275 80.9154 8.71817C81.0909 8.40359 81.3563 8.14851 81.6775 7.98552C82.0184 7.80122 82.3998 7.70471 82.7873 7.70471C83.1749 7.70471 83.5563 7.80122 83.8971 7.98552C84.2184 8.14851 84.4838 8.40359 84.6593 8.71817C84.8348 9.03275 84.9125 9.39253 84.8825 9.75152C84.9133 10.111 84.836 10.4714 84.6606 10.7867C84.4852 11.1019 84.2197 11.3576 83.898 11.5209C83.5568 11.7057 83.1749 11.8024 82.7869 11.8024C82.3989 11.8024 82.017 11.7057 81.6758 11.5209C81.3543 11.3575 81.0889 11.1017 80.9137 10.7865C80.7385 10.4713 80.6613 10.1109 80.6922 9.75152V9.75152ZM83.9812 9.75152C83.9812 8.89613 83.5489 8.39241 82.792 8.39241C82.0352 8.39241 81.6028 8.89273 81.6028 9.75152C81.6028 10.6103 82.0275 11.1106 82.792 11.1106C83.5565 11.1106 83.9778 10.6103 83.9778 9.75152H83.9812Z" fill="white"/>
<path d="M86.0591 7.78456H86.9034V8.41144H86.9688C87.0965 8.17711 87.2903 7.98554 87.5261 7.86062C87.7619 7.73569 88.0292 7.68295 88.2948 7.70896C88.5066 7.69274 88.7195 7.72035 88.9202 7.79007C89.1208 7.85978 89.305 7.9701 89.4611 8.11414C89.6059 8.24666 89.7157 8.41299 89.7806 8.59826C89.8456 8.78353 89.8636 8.982 89.8332 9.17594V11.7294H88.9557V9.36877C88.9744 9.23893 88.9623 9.10652 88.9206 8.98216C88.8788 8.85781 88.8085 8.74498 88.7152 8.65272C88.622 8.56046 88.5084 8.49135 88.3836 8.45092C88.2588 8.41049 88.1263 8.39988 87.9967 8.41994C87.8529 8.41273 87.7091 8.43409 87.5737 8.48279C87.4382 8.53149 87.3138 8.60656 87.2075 8.70365C87.109 8.79314 87.033 8.90465 86.9857 9.0291C86.9385 9.15355 86.9214 9.2874 86.9357 9.41973V11.7277H86.0591V7.78456Z" fill="white"/>
<path d="M94.787 6.79944V7.79923H95.7494V8.455H94.787V10.4835C94.787 10.8963 94.979 11.0781 95.4156 11.0781C95.5274 11.0778 95.6391 11.0719 95.7502 11.0602V11.7084C95.5926 11.7334 95.4333 11.7468 95.2737 11.7483C94.2986 11.7483 93.9104 11.4433 93.9104 10.6831V8.455H93.2053V7.79923H93.9104V6.79944H94.787Z" fill="white"/>
<path d="M96.9436 6.2428H97.8126V8.41992H97.8822C98.0153 8.1835 98.2142 7.99085 98.4547 7.86538C98.6953 7.73991 98.9671 7.68703 99.2371 7.71318C99.4476 7.70098 99.6584 7.73149 99.8568 7.80287C100.055 7.87426 100.237 7.98504 100.391 8.12856C100.535 8.26105 100.643 8.42621 100.709 8.60993C100.774 8.79365 100.794 8.99047 100.767 9.18357V11.7319H99.8929V9.373C99.9098 9.24413 99.8969 9.11311 99.8552 8.99001C99.8135 8.86692 99.7441 8.75503 99.6524 8.66297C99.5606 8.5709 99.449 8.50112 99.326 8.45898C99.2031 8.41684 99.0721 8.40348 98.9432 8.41992C98.7953 8.40789 98.6464 8.4255 98.5053 8.47174C98.3643 8.51798 98.2339 8.59191 98.1218 8.68919C98.0177 8.7787 97.9364 8.89174 97.8847 9.01893C97.833 9.14612 97.8123 9.2838 97.8245 9.42056V11.7243H96.9436V6.2428Z" fill="white"/>
<path d="M105.884 10.6625C105.737 11.0407 105.468 11.3588 105.119 11.5658C104.77 11.7728 104.362 11.8567 103.959 11.8041C103.673 11.8139 103.388 11.7664 103.121 11.6642C102.853 11.5621 102.609 11.4075 102.402 11.2095C102.21 11.0259 102.065 10.799 101.979 10.5477C101.893 10.2965 101.868 10.0282 101.907 9.76545C101.87 9.50283 101.896 9.23519 101.982 8.98428C102.067 8.73337 102.211 8.50626 102.401 8.3214C102.607 8.12124 102.85 7.96377 103.117 7.85806C103.383 7.75236 103.668 7.70053 103.955 7.70555C104.222 7.6822 104.49 7.71766 104.742 7.80944C104.993 7.90122 105.222 8.04707 105.411 8.2367C105.6 8.42634 105.745 8.65513 105.836 8.90695C105.927 9.15877 105.961 9.42747 105.937 9.6941V9.96592H102.799V10.0092C102.786 10.157 102.808 10.3057 102.862 10.4439C102.915 10.5822 103 10.7063 103.109 10.8069C103.346 11.0266 103.659 11.146 103.982 11.1398C104.185 11.166 104.392 11.1351 104.578 11.0506C104.765 10.9662 104.925 10.8315 105.039 10.6616L105.884 10.6625ZM102.8 9.3883H105.044C105.054 9.25298 105.033 9.11722 104.982 8.99135C104.931 8.86549 104.853 8.75285 104.752 8.66202C104.533 8.46354 104.245 8.3576 103.95 8.36642C103.65 8.36061 103.359 8.4659 103.132 8.66202C103.027 8.75189 102.944 8.86335 102.886 8.98873C102.829 9.11411 102.799 9.25043 102.8 9.3883V9.3883Z" fill="white"/>
</g>
<defs>
<filter id="filter0_d" x="-16" y="-12" width="155" height="68" filterUnits="userSpaceOnUse" color-interpolation-filters="sRGB">
<feFlood flood-opacity="0" result="BackgroundImageFix"/>
<feColorMatrix in="SourceAlpha" type="matrix" values="0 0 0 0 0 0 0 0 0 0 0 0 0 0 0 0 0 0 127 0" result="hardAlpha"/>
<feOffset dy="4"/>
<feGaussianBlur stdDeviation="8"/>
<feColorMatrix type="matrix" values="0 0 0 0 0.337255 0 0 0 0 0.486275 0 0 0 0 0.678431 0 0 0 0.16 0"/>
<feBlend mode="normal" in2="BackgroundImageFix" result="effect1_dropShadow"/>
<feBlend mode="normal" in="SourceGraphic" in2="effect1_dropShadow" result="shape"/>
</filter>
<clipPath id="clip0">
<rect width="123" height="36" fill="white"/>
</clipPath>
</defs>
</svg>
