<svg width="20" height="20" viewBox="0 0 20 20" fill="none" xmlns="http://www.w3.org/2000/svg">
<path fill-rule="evenodd" clip-rule="evenodd" d="M9.9618 19.9999L9.97074 20H9.96766L9.9618 19.9999ZM10.0323 20H10.0293L10.0382 19.9999L10.0323 20ZM9.93125 19.9998L9.9409 19.9998H9.93535L9.93125 19.9998ZM10.0646 19.9998H10.0591L10.0688 19.9998L10.0646 19.9998ZM9.9018 19.9995L9.90824 19.9996L9.90309 19.9995H9.9018ZM10.0969 19.9995L10.0918 19.9996L10.0982 19.9995H10.0969ZM10.1292 19.9992L10.1269 19.9992L10.1356 19.9991L10.1292 19.9992ZM9.86438 19.9991L9.87309 19.9992L9.87082 19.9992L9.86438 19.9991ZM10.1614 19.9987L10.1561 19.9988L10.1669 19.9986L10.1614 19.9987ZM9.83313 19.9986L9.84387 19.9988L9.83859 19.9987L9.83313 19.9986ZM10.1936 19.9982L10.1865 19.9983L10.1964 19.9981L10.1936 19.9982ZM9.80359 19.9981L9.81352 19.9983L9.80641 19.9982L9.80359 19.9981ZM9.76699 19.9973L9.77578 19.9975L9.77422 19.9975L9.76699 19.9973ZM10.2258 19.9975L10.2242 19.9975L10.233 19.9973L10.2258 19.9975ZM9.73488 19.9965L9.74695 19.9968L9.74207 19.9967L9.73488 19.9965ZM10.2579 19.9967L10.253 19.9968L10.2651 19.9965L10.2579 19.9967ZM10.2901 19.9959L10.2822 19.9961L10.2946 19.9957L10.2901 19.9959ZM9.70543 19.9957L9.71777 19.9961L9.70992 19.9959L9.70543 19.9957ZM9.6773 19.9949L9.68609 19.9952L9.67781 19.9949L9.67023 19.9946L9.6773 19.9949ZM10.3222 19.9949L10.3139 19.9952L10.3227 19.9949L10.3298 19.9946L10.3222 19.9949ZM10.3543 19.9938L10.3499 19.994L10.3634 19.9935L10.3543 19.9938ZM9.63664 19.9935L9.65012 19.994L9.64574 19.9938L9.63664 19.9935ZM9.60738 19.9924L9.62152 19.9929L9.61367 19.9927L9.60738 19.9924ZM10.3863 19.9927L10.3785 19.9929L10.3926 19.9924L10.3863 19.9927ZM9.57867 19.9912L9.5925 19.9918L9.58168 19.9914L9.57867 19.9912ZM10.4183 19.9914L10.4075 19.9918L10.4213 19.9912L10.4183 19.9914ZM9.53844 19.9895L9.55328 19.9902L9.54965 19.99L9.53844 19.9895ZM10.4504 19.99L10.4467 19.9902L10.4616 19.9895L10.4504 19.99ZM9.50957 19.9882L9.52496 19.9889L9.5177 19.9886L9.50957 19.9882ZM10.4823 19.9886L10.475 19.9889L10.4904 19.9882L10.4823 19.9886ZM9.48113 19.9867L9.49664 19.9875L9.48574 19.987L9.48113 19.9867ZM10.5143 19.987L10.5034 19.9875L10.5189 19.9867L10.5143 19.987ZM10.5462 19.9853L10.5321 19.9861L10.5446 19.9854L10.5594 19.9846L10.5462 19.9853ZM9.45539 19.9854L9.46793 19.9861L9.45379 19.9853L9.44062 19.9846L9.45539 19.9854ZM10.5781 19.9835L10.5718 19.9839L10.5877 19.983L10.5781 19.9835ZM9.4123 19.983L9.42816 19.9839L9.42191 19.9835L9.4123 19.983ZM9.3841 19.9813L9.39992 19.9822L9.39004 19.9817L9.3841 19.9813ZM10.61 19.9817L10.6001 19.9822L10.6159 19.9813L10.61 19.9817ZM9.35719 19.9796L9.37144 19.9805L9.35816 19.9797L9.3448 19.9788L9.35719 19.9796ZM10.6418 19.9797L10.6286 19.9805L10.6428 19.9796L10.6552 19.9788L10.6418 19.9797ZM10.6736 19.9776L10.6689 19.9779L10.684 19.9769L10.6736 19.9776ZM9.31602 19.9769L9.33113 19.9779L9.32637 19.9776L9.31602 19.9769ZM9.28785 19.975L9.3027 19.976L9.29457 19.9755L9.28785 19.975ZM10.7054 19.9755L10.6973 19.976L10.7121 19.975L10.7054 19.9755ZM9.25977 19.973L9.2734 19.9739L9.26281 19.9732L9.25977 19.973ZM10.7372 19.9732L10.7266 19.9739L10.7402 19.973L10.7372 19.9732ZM9.22199 19.9701L9.23395 19.971L9.23105 19.9708L9.22199 19.9701ZM10.7689 19.9708L10.7661 19.971L10.778 19.9701L10.7689 19.9708ZM10.8006 19.9684L10.7949 19.9688L10.8071 19.9678L10.8006 19.9684ZM9.19293 19.9678L9.20508 19.9688L9.19938 19.9684L9.19293 19.9678ZM9.16461 19.9655L9.17492 19.9664L9.16766 19.9658L9.16461 19.9655ZM10.8323 19.9658L10.8251 19.9664L10.8354 19.9655L10.8323 19.9658ZM9.13344 19.9629L9.13652 19.9632L9.13602 19.9631L9.13344 19.9629ZM10.864 19.9631L10.8635 19.9632L10.8666 19.9629L10.864 19.9631ZM10.8956 19.9604L10.8928 19.9606L10.8999 19.96L10.8956 19.9604ZM9.10012 19.96L9.10719 19.9606L9.10437 19.9604L9.10012 19.96ZM9.07082 19.9573L9.07609 19.9578L9.07281 19.9575L9.07082 19.9573ZM10.9272 19.9575L10.9239 19.9578L10.9292 19.9573L10.9272 19.9575ZM8.4375 19.8784C3.65941 19.1274 0 14.9877 0 10C0 4.48086 4.48086 0 10 0C15.5191 0 20 4.48086 20 10C20 14.9877 16.3406 19.1274 11.5625 19.8784V12.8906H13.8926L14.3359 10H11.5625V8.12418C11.5625 7.33336 11.9499 6.5625 13.1921 6.5625H14.4531V4.10156C14.4531 4.10156 13.3088 3.90625 12.2146 3.90625C9.93043 3.90625 8.4375 5.29063 8.4375 7.79688V10H5.89844V12.8906H8.4375V19.8784Z" fill="#1C2951"/>
</svg>
