<svg width="20" height="20" viewBox="0 0 20 20" fill="none" xmlns="http://www.w3.org/2000/svg">
<path fill-rule="evenodd" clip-rule="evenodd" d="M10 0C15.5191 0 20 4.48086 20 10C20 15.5191 15.5191 20 10 20C4.48086 20 0 15.5191 0 10C0 4.48086 4.48086 0 10 0ZM8.23863 15.3187C12.6637 15.3187 15.0833 11.6519 15.0833 8.47402C15.0833 8.36926 15.0833 8.26449 15.0783 8.16469C15.5473 7.82547 15.9564 7.40141 16.2806 6.9175C15.8516 7.10707 15.3876 7.2368 14.8987 7.29664C15.3976 6.9973 15.7768 6.52836 15.9564 5.96465C15.4924 6.23902 14.9786 6.43855 14.4298 6.54832C13.9907 6.07937 13.3671 5.79004 12.6737 5.79004C11.3467 5.79004 10.2691 6.86762 10.2691 8.19465C10.2691 8.38422 10.2891 8.56879 10.3339 8.7434C8.33344 8.64363 6.56238 7.68578 5.37508 6.22902C5.17051 6.58324 5.05078 6.9973 5.05078 7.43633C5.05078 8.26945 5.47484 9.00781 6.1234 9.43684C5.72926 9.42688 5.36008 9.31711 5.03582 9.13754V9.16746C5.03582 10.3348 5.86395 11.3027 6.96648 11.5272C6.76695 11.582 6.55242 11.612 6.33293 11.612C6.17824 11.612 6.02859 11.597 5.87895 11.5671C6.18324 12.5249 7.07125 13.2184 8.12391 13.2383C7.30074 13.8819 6.26309 14.2661 5.13559 14.2661C4.94102 14.2661 4.75145 14.2561 4.56187 14.2311C5.61453 14.9196 6.88168 15.3187 8.23863 15.3187Z" fill="#1C2951"/>
</svg>
