<svg width="20" height="20" viewBox="0 0 20 20" fill="none" xmlns="http://www.w3.org/2000/svg">
<path fill-rule="evenodd" clip-rule="evenodd" d="M10 0C15.5191 0 20 4.48086 20 10C20 15.5191 15.5191 20 10 20C4.48086 20 0 15.5191 0 10C0 4.48086 4.48086 0 10 0ZM10 3.75C8.30262 3.75 8.08977 3.75719 7.42312 3.78762C6.75789 3.81797 6.30355 3.92363 5.90598 4.07812C5.495 4.23785 5.14645 4.45156 4.79898 4.79902C4.45152 5.14648 4.23781 5.49504 4.07809 5.90602C3.92359 6.30355 3.81797 6.75789 3.78758 7.42312C3.75719 8.08977 3.75 8.30262 3.75 10C3.75 11.6974 3.75719 11.9102 3.78758 12.5769C3.81797 13.2421 3.92359 13.6964 4.07809 14.094C4.23781 14.505 4.45152 14.8535 4.79898 15.201C5.14645 15.5485 5.495 15.7622 5.90598 15.9219C6.30355 16.0764 6.75789 16.182 7.42312 16.2124C8.08977 16.2428 8.30262 16.25 10 16.25C11.6974 16.25 11.9102 16.2428 12.5769 16.2124C13.2421 16.182 13.6964 16.0764 14.094 15.9219C14.505 15.7622 14.8535 15.5485 15.201 15.201C15.5485 14.8535 15.7622 14.505 15.9219 14.094C16.0764 13.6964 16.182 13.2421 16.2124 12.5769C16.2428 11.9102 16.25 11.6974 16.25 10C16.25 8.30262 16.2428 8.08977 16.2124 7.42312C16.182 6.75789 16.0764 6.30355 15.9219 5.90602C15.7622 5.49504 15.5485 5.14648 15.201 4.79902C14.8535 4.45156 14.505 4.23785 14.094 4.07812C13.6964 3.92363 13.2421 3.81797 12.5769 3.78762C11.9102 3.75719 11.6974 3.75 10 3.75ZM10 4.87613C11.6688 4.87613 11.8665 4.8825 12.5255 4.91258C13.1349 4.94039 13.4658 5.04219 13.6861 5.12777C13.9778 5.24113 14.186 5.3766 14.4047 5.59531C14.6234 5.81398 14.7589 6.02223 14.8722 6.31394C14.9578 6.53418 15.0596 6.86508 15.0874 7.47445C15.1175 8.13352 15.1239 8.33117 15.1239 10C15.1239 11.6688 15.1175 11.8665 15.0874 12.5255C15.0596 13.1349 14.9578 13.4658 14.8722 13.6861C14.7589 13.9778 14.6234 14.186 14.4047 14.4047C14.186 14.6234 13.9778 14.7589 13.6861 14.8722C13.4658 14.9578 13.1349 15.0596 12.5255 15.0874C11.8666 15.1175 11.6689 15.1239 10 15.1239C8.33105 15.1239 8.13344 15.1175 7.47445 15.0874C6.86508 15.0596 6.53418 14.9578 6.31394 14.8722C6.02219 14.7589 5.81398 14.6234 5.59527 14.4047C5.37656 14.186 5.24113 13.9778 5.12777 13.6861C5.04219 13.4658 4.94035 13.1349 4.91254 12.5255C4.88246 11.8665 4.87613 11.6688 4.87613 10C4.87613 8.33117 4.88246 8.13352 4.91254 7.47445C4.94035 6.86508 5.04219 6.53418 5.12777 6.31394C5.24113 6.02223 5.37656 5.81398 5.59527 5.59531C5.81398 5.3766 6.02219 5.24113 6.31394 5.12777C6.53418 5.04219 6.86508 4.94039 7.47445 4.91258C8.13352 4.8825 8.33117 4.87613 10 4.87613ZM10 6.79055C8.22746 6.79055 6.79055 8.22746 6.79055 10C6.79055 11.7725 8.22746 13.2095 10 13.2095C11.7725 13.2095 13.2095 11.7725 13.2095 10C13.2095 8.22746 11.7725 6.79055 10 6.79055ZM10 12.0833C8.84941 12.0833 7.91668 11.1506 7.91668 10C7.91668 8.84941 8.84941 7.91668 10 7.91668C11.1506 7.91668 12.0833 8.84941 12.0833 10C12.0833 11.1506 11.1506 12.0833 10 12.0833ZM14.0863 6.66375C14.0863 7.07797 13.7505 7.41371 13.3362 7.41371C12.9221 7.41371 12.5863 7.07797 12.5863 6.66375C12.5863 6.24953 12.9221 5.91375 13.3362 5.91375C13.7505 5.91375 14.0863 6.24953 14.0863 6.66375Z" fill="#1C2951"/>
</svg>
