<svg width="1120" height="216" viewBox="0 0 1120 216" fill="none" xmlns="http://www.w3.org/2000/svg">
<g clip-path="url(#clip0_2354_379)">
<g filter="url(#filter0_d_2354_379)">
<rect width="1120" height="216" rx="8" fill="url(#paint0_radial_2354_379)"/>
</g>
<g filter="url(#filter1_bi_2354_379)">
<path d="M43 102.5L0 105V208C0 212.418 3.58172 216 8 216H1112C1116.42 216 1120 212.418 1120 208V109L1094.38 89.25L1056.5 76L1019.12 70.5L991.375 74.625H969.5L951.375 81.625L903.625 68.5L863.25 81.375L831.625 82.75L792.25 90.125L757 81.375L713 87.5L676.375 85.625L627.625 70.25L595.875 42.5L576.5 47.375L560.125 36L516.25 70L493.25 73.125L472.875 81.5H448.875L419.125 91.5L381 88.125L342.625 95.375L317.5 91.5L287.375 87.875L259.625 81.375L235.5 69.75L209.5 59.875L192.25 65.125L176 76L150 84L121.5 92H88L43 102.5Z" fill="url(#paint1_linear_2354_379)" fill-opacity="0.2"/>
</g>
<path d="M0 105L43 102.5L88 92H121.5L150 84L176 76L192.75 65L210 59.5L235.5 69.5L259.5 81.5L287.5 88L317.5 91.5L342.5 95.5L381 88L419 91.5L449 81.5H473L493.5 73L516.5 70L560.5 35.5L576.5 47.5L596 42.5L627.5 70.25L676.25 85.7567L712.25 87.5L756.75 81.5L793.25 90.25L831.5 82.75L863.5 81.5L901 69.5H906.75L951.5 81.5L969.5 74.5H990L1019.25 71L1056.5 76L1094 89L1120 109" stroke="url(#paint2_linear_2354_379)" stroke-width="2" stroke-linecap="round" stroke-linejoin="round"/>
<circle cx="210.5" cy="59.5" r="7" fill="#FA4A29" stroke="white" stroke-width="2"/>
<circle cx="560" cy="35.5" r="7" fill="#FA4A29" stroke="white" stroke-width="2"/>
<circle cx="903.5" cy="69.25" r="7" fill="#FA4A29" stroke="white" stroke-width="2"/>
<path d="M154.498 140V136.24H160.178V119.52H155.498V116.64C156.752 116.4 157.845 116.12 158.778 115.8C159.712 115.453 160.578 115.04 161.378 114.56H164.818V136.24H169.818V140H154.498ZM176.766 140.48C175.939 140.48 175.233 140.187 174.646 139.6C174.059 139.013 173.766 138.267 173.766 137.36C173.766 136.453 174.059 135.707 174.646 135.12C175.233 134.533 175.939 134.24 176.766 134.24C177.619 134.24 178.326 134.533 178.886 135.12C179.446 135.707 179.726 136.453 179.726 137.36C179.726 138.267 179.446 139.013 178.886 139.6C178.326 140.187 177.619 140.48 176.766 140.48ZM191.062 140.48C189.008 140.48 187.275 140.133 185.862 139.44C184.475 138.72 183.328 137.867 182.422 136.88L184.622 133.92C185.395 134.693 186.275 135.36 187.262 135.92C188.248 136.453 189.382 136.72 190.662 136.72C192.048 136.72 193.168 136.387 194.022 135.72C194.902 135.027 195.342 134.08 195.342 132.88C195.342 132 195.115 131.24 194.662 130.6C194.235 129.933 193.475 129.427 192.382 129.08C191.315 128.733 189.808 128.56 187.862 128.56V125.2C190.368 125.2 192.102 124.813 193.062 124.04C194.022 123.267 194.502 122.293 194.502 121.12C194.502 120.053 194.168 119.227 193.502 118.64C192.835 118.027 191.915 117.72 190.742 117.72C189.755 117.72 188.848 117.947 188.022 118.4C187.195 118.827 186.395 119.4 185.622 120.12L183.262 117.28C184.355 116.32 185.515 115.547 186.742 114.96C187.995 114.373 189.382 114.08 190.902 114.08C193.355 114.08 195.342 114.667 196.862 115.84C198.382 116.987 199.142 118.64 199.142 120.8C199.142 122.213 198.742 123.413 197.942 124.4C197.168 125.36 196.088 126.107 194.702 126.64V126.8C196.195 127.2 197.448 127.933 198.462 129C199.475 130.067 199.982 131.44 199.982 133.12C199.982 134.667 199.568 135.987 198.742 137.08C197.942 138.173 196.862 139.013 195.502 139.6C194.168 140.187 192.688 140.48 191.062 140.48ZM222.137 140.48C219.951 140.48 217.964 139.96 216.177 138.92C214.391 137.88 212.964 136.36 211.897 134.36C210.857 132.333 210.337 129.88 210.337 127C210.337 124.147 210.871 121.707 211.937 119.68C213.031 117.627 214.484 116.067 216.297 115C218.111 113.907 220.111 113.36 222.297 113.36C223.951 113.36 225.417 113.693 226.697 114.36C227.977 115.027 229.031 115.8 229.857 116.68L227.377 119.68C226.711 118.987 225.964 118.44 225.137 118.04C224.337 117.613 223.431 117.4 222.417 117.4C221.004 117.4 219.737 117.787 218.617 118.56C217.524 119.307 216.657 120.387 216.017 121.8C215.404 123.213 215.097 124.907 215.097 126.88C215.097 129.867 215.751 132.213 217.057 133.92C218.364 135.6 220.111 136.44 222.297 136.44C223.471 136.44 224.511 136.2 225.417 135.72C226.324 135.213 227.151 134.56 227.897 133.76L230.377 136.68C229.311 137.907 228.084 138.853 226.697 139.52C225.337 140.16 223.817 140.48 222.137 140.48ZM233.544 140V120.36H237.344L237.664 123.84H237.824C238.518 122.56 239.358 121.587 240.344 120.92C241.331 120.227 242.344 119.88 243.384 119.88C244.318 119.88 245.064 120.013 245.624 120.28L244.824 124.28C244.478 124.173 244.158 124.093 243.864 124.04C243.571 123.987 243.211 123.96 242.784 123.96C242.011 123.96 241.198 124.267 240.344 124.88C239.491 125.467 238.758 126.507 238.144 128V140H233.544ZM260.474 136.04V128.48H253.314V125.12H260.474V117.56H263.954V125.12H271.114V128.48H263.954V136.04H260.474Z" fill="white"/>
<path d="M135.608 175.24C134.942 175.24 134.315 175.147 133.728 174.96C133.155 174.76 132.655 174.44 132.228 174C131.815 173.547 131.488 172.96 131.248 172.24C131.008 171.52 130.888 170.633 130.888 169.58V161.88H132.548V169.62C132.548 170.407 132.628 171.067 132.788 171.6C132.948 172.133 133.162 172.56 133.428 172.88C133.708 173.2 134.035 173.433 134.408 173.58C134.782 173.713 135.182 173.78 135.608 173.78C136.048 173.78 136.455 173.713 136.828 173.58C137.202 173.433 137.528 173.2 137.808 172.88C138.088 172.56 138.308 172.133 138.468 171.6C138.628 171.067 138.708 170.407 138.708 169.62V161.88H140.308V169.58C140.308 170.633 140.188 171.52 139.948 172.24C139.708 172.96 139.375 173.547 138.948 174C138.535 174.44 138.042 174.76 137.468 174.96C136.895 175.147 136.275 175.24 135.608 175.24ZM146.141 175.24C145.448 175.24 144.788 175.113 144.161 174.86C143.534 174.607 142.988 174.287 142.521 173.9L143.341 172.8C143.768 173.147 144.201 173.427 144.641 173.64C145.094 173.853 145.614 173.96 146.201 173.96C146.841 173.96 147.321 173.813 147.641 173.52C147.961 173.227 148.121 172.867 148.121 172.44C148.121 172.187 148.054 171.967 147.921 171.78C147.788 171.593 147.614 171.433 147.401 171.3C147.201 171.153 146.968 171.027 146.701 170.92C146.434 170.813 146.168 170.707 145.901 170.6C145.554 170.48 145.208 170.347 144.861 170.2C144.514 170.04 144.201 169.853 143.921 169.64C143.654 169.413 143.434 169.153 143.261 168.86C143.088 168.567 143.001 168.213 143.001 167.8C143.001 167.413 143.074 167.053 143.221 166.72C143.381 166.373 143.601 166.08 143.881 165.84C144.174 165.587 144.528 165.393 144.941 165.26C145.354 165.113 145.821 165.04 146.341 165.04C146.954 165.04 147.514 165.147 148.021 165.36C148.541 165.573 148.988 165.833 149.361 166.14L148.581 167.18C148.248 166.927 147.901 166.72 147.541 166.56C147.181 166.4 146.788 166.32 146.361 166.32C145.748 166.32 145.294 166.46 145.001 166.74C144.721 167.02 144.581 167.347 144.581 167.72C144.581 167.947 144.641 168.147 144.761 168.32C144.881 168.48 145.041 168.627 145.241 168.76C145.441 168.88 145.668 168.993 145.921 169.1C146.188 169.193 146.461 169.293 146.741 169.4C147.088 169.533 147.434 169.673 147.781 169.82C148.141 169.967 148.461 170.153 148.741 170.38C149.021 170.593 149.248 170.86 149.421 171.18C149.608 171.5 149.701 171.887 149.701 172.34C149.701 172.74 149.621 173.113 149.461 173.46C149.314 173.807 149.088 174.113 148.781 174.38C148.488 174.647 148.114 174.853 147.661 175C147.221 175.16 146.714 175.24 146.141 175.24ZM155.92 175.24C155.267 175.24 154.653 175.127 154.08 174.9C153.52 174.66 153.027 174.327 152.6 173.9C152.187 173.46 151.86 172.927 151.62 172.3C151.38 171.673 151.26 170.96 151.26 170.16C151.26 169.36 151.38 168.647 151.62 168.02C151.873 167.38 152.2 166.84 152.6 166.4C153.013 165.96 153.48 165.627 154 165.4C154.52 165.16 155.06 165.04 155.62 165.04C156.233 165.04 156.78 165.147 157.26 165.36C157.753 165.573 158.16 165.88 158.48 166.28C158.813 166.68 159.067 167.16 159.24 167.72C159.413 168.28 159.5 168.907 159.5 169.6C159.5 169.773 159.493 169.947 159.48 170.12C159.48 170.28 159.467 170.42 159.44 170.54H152.88C152.947 171.58 153.267 172.407 153.84 173.02C154.427 173.62 155.187 173.92 156.12 173.92C156.587 173.92 157.013 173.853 157.4 173.72C157.8 173.573 158.18 173.387 158.54 173.16L159.12 174.24C158.693 174.507 158.22 174.74 157.7 174.94C157.18 175.14 156.587 175.24 155.92 175.24ZM152.86 169.36H158.06C158.06 168.373 157.847 167.627 157.42 167.12C157.007 166.6 156.42 166.34 155.66 166.34C155.313 166.34 154.98 166.407 154.66 166.54C154.353 166.673 154.073 166.873 153.82 167.14C153.567 167.393 153.353 167.707 153.18 168.08C153.02 168.453 152.913 168.88 152.86 169.36ZM161.902 175V165.28H163.262L163.402 167.04H163.462C163.795 166.427 164.195 165.94 164.662 165.58C165.142 165.22 165.662 165.04 166.222 165.04C166.608 165.04 166.955 165.107 167.262 165.24L166.942 166.68C166.782 166.627 166.635 166.587 166.502 166.56C166.368 166.533 166.202 166.52 166.002 166.52C165.588 166.52 165.155 166.687 164.702 167.02C164.262 167.353 163.875 167.933 163.542 168.76V175H161.902ZM171.297 175.24C170.604 175.24 169.944 175.113 169.317 174.86C168.691 174.607 168.144 174.287 167.677 173.9L168.497 172.8C168.924 173.147 169.357 173.427 169.797 173.64C170.251 173.853 170.771 173.96 171.357 173.96C171.997 173.96 172.477 173.813 172.797 173.52C173.117 173.227 173.277 172.867 173.277 172.44C173.277 172.187 173.211 171.967 173.077 171.78C172.944 171.593 172.771 171.433 172.557 171.3C172.357 171.153 172.124 171.027 171.857 170.92C171.591 170.813 171.324 170.707 171.057 170.6C170.711 170.48 170.364 170.347 170.017 170.2C169.671 170.04 169.357 169.853 169.077 169.64C168.811 169.413 168.591 169.153 168.417 168.86C168.244 168.567 168.157 168.213 168.157 167.8C168.157 167.413 168.231 167.053 168.377 166.72C168.537 166.373 168.757 166.08 169.037 165.84C169.331 165.587 169.684 165.393 170.097 165.26C170.511 165.113 170.977 165.04 171.497 165.04C172.111 165.04 172.671 165.147 173.177 165.36C173.697 165.573 174.144 165.833 174.517 166.14L173.737 167.18C173.404 166.927 173.057 166.72 172.697 166.56C172.337 166.4 171.944 166.32 171.517 166.32C170.904 166.32 170.451 166.46 170.157 166.74C169.877 167.02 169.737 167.347 169.737 167.72C169.737 167.947 169.797 168.147 169.917 168.32C170.037 168.48 170.197 168.627 170.397 168.76C170.597 168.88 170.824 168.993 171.077 169.1C171.344 169.193 171.617 169.293 171.897 169.4C172.244 169.533 172.591 169.673 172.937 169.82C173.297 169.967 173.617 170.153 173.897 170.38C174.177 170.593 174.404 170.86 174.577 171.18C174.764 171.5 174.857 171.887 174.857 172.34C174.857 172.74 174.777 173.113 174.617 173.46C174.471 173.807 174.244 174.113 173.937 174.38C173.644 174.647 173.271 174.853 172.817 175C172.377 175.16 171.871 175.24 171.297 175.24ZM184.2 175.24C183.68 175.24 183.24 175.16 182.88 175C182.533 174.84 182.247 174.62 182.02 174.34C181.807 174.06 181.653 173.72 181.56 173.32C181.467 172.92 181.42 172.48 181.42 172V166.62H179.98V165.38L181.5 165.28L181.7 162.56H183.08V165.28H185.7V166.62H183.08V172.02C183.08 172.62 183.187 173.087 183.4 173.42C183.627 173.74 184.02 173.9 184.58 173.9C184.753 173.9 184.94 173.873 185.14 173.82C185.34 173.767 185.52 173.707 185.68 173.64L186 174.88C185.733 174.973 185.44 175.053 185.12 175.12C184.813 175.2 184.507 175.24 184.2 175.24ZM187.898 175V165.28H189.258L189.398 167.04H189.458C189.791 166.427 190.191 165.94 190.658 165.58C191.138 165.22 191.658 165.04 192.218 165.04C192.604 165.04 192.951 165.107 193.258 165.24L192.938 166.68C192.778 166.627 192.631 166.587 192.498 166.56C192.364 166.533 192.198 166.52 191.998 166.52C191.584 166.52 191.151 166.687 190.698 167.02C190.258 167.353 189.871 167.933 189.538 168.76V175H187.898ZM197.671 175.24C196.631 175.24 195.871 174.92 195.391 174.28C194.925 173.64 194.691 172.693 194.691 171.44V165.28H196.351V171.22C196.351 172.14 196.491 172.807 196.771 173.22C197.065 173.62 197.531 173.82 198.171 173.82C198.678 173.82 199.125 173.693 199.511 173.44C199.898 173.173 200.325 172.753 200.791 172.18V165.28H202.431V175H201.071L200.931 173.48H200.871C200.418 174.013 199.938 174.44 199.431 174.76C198.938 175.08 198.351 175.24 197.671 175.24ZM208.25 175.24C207.557 175.24 206.897 175.113 206.27 174.86C205.644 174.607 205.097 174.287 204.63 173.9L205.45 172.8C205.877 173.147 206.31 173.427 206.75 173.64C207.204 173.853 207.724 173.96 208.31 173.96C208.95 173.96 209.43 173.813 209.75 173.52C210.07 173.227 210.23 172.867 210.23 172.44C210.23 172.187 210.164 171.967 210.03 171.78C209.897 171.593 209.724 171.433 209.51 171.3C209.31 171.153 209.077 171.027 208.81 170.92C208.544 170.813 208.277 170.707 208.01 170.6C207.664 170.48 207.317 170.347 206.97 170.2C206.624 170.04 206.31 169.853 206.03 169.64C205.764 169.413 205.544 169.153 205.37 168.86C205.197 168.567 205.11 168.213 205.11 167.8C205.11 167.413 205.184 167.053 205.33 166.72C205.49 166.373 205.71 166.08 205.99 165.84C206.284 165.587 206.637 165.393 207.05 165.26C207.464 165.113 207.93 165.04 208.45 165.04C209.064 165.04 209.624 165.147 210.13 165.36C210.65 165.573 211.097 165.833 211.47 166.14L210.69 167.18C210.357 166.927 210.01 166.72 209.65 166.56C209.29 166.4 208.897 166.32 208.47 166.32C207.857 166.32 207.404 166.46 207.11 166.74C206.83 167.02 206.69 167.347 206.69 167.72C206.69 167.947 206.75 168.147 206.87 168.32C206.99 168.48 207.15 168.627 207.35 168.76C207.55 168.88 207.777 168.993 208.03 169.1C208.297 169.193 208.57 169.293 208.85 169.4C209.197 169.533 209.544 169.673 209.89 169.82C210.25 169.967 210.57 170.153 210.85 170.38C211.13 170.593 211.357 170.86 211.53 171.18C211.717 171.5 211.81 171.887 211.81 172.34C211.81 172.74 211.73 173.113 211.57 173.46C211.424 173.807 211.197 174.113 210.89 174.38C210.597 174.647 210.224 174.853 209.77 175C209.33 175.16 208.824 175.24 208.25 175.24ZM216.759 175.24C216.239 175.24 215.799 175.16 215.439 175C215.092 174.84 214.805 174.62 214.579 174.34C214.365 174.06 214.212 173.72 214.119 173.32C214.025 172.92 213.979 172.48 213.979 172V166.62H212.539V165.38L214.059 165.28L214.259 162.56H215.639V165.28H218.259V166.62H215.639V172.02C215.639 172.62 215.745 173.087 215.959 173.42C216.185 173.74 216.579 173.9 217.139 173.9C217.312 173.9 217.499 173.873 217.699 173.82C217.899 173.767 218.079 173.707 218.239 173.64L218.559 174.88C218.292 174.973 217.999 175.053 217.679 175.12C217.372 175.2 217.065 175.24 216.759 175.24ZM229.58 175.24C228.754 175.24 227.994 175.087 227.3 174.78C226.607 174.473 226 174.033 225.48 173.46C224.974 172.873 224.574 172.16 224.28 171.32C224 170.467 223.86 169.507 223.86 168.44C223.86 167.387 224.007 166.44 224.3 165.6C224.594 164.76 225 164.047 225.52 163.46C226.04 162.873 226.654 162.427 227.36 162.12C228.067 161.8 228.84 161.64 229.68 161.64C230.48 161.64 231.18 161.807 231.78 162.14C232.394 162.46 232.894 162.833 233.28 163.26L232.38 164.34C232.034 163.967 231.64 163.667 231.2 163.44C230.76 163.213 230.26 163.1 229.7 163.1C229.074 163.1 228.507 163.227 228 163.48C227.494 163.72 227.06 164.073 226.7 164.54C226.34 164.993 226.06 165.547 225.86 166.2C225.674 166.853 225.58 167.587 225.58 168.4C225.58 169.227 225.674 169.973 225.86 170.64C226.06 171.293 226.334 171.853 226.68 172.32C227.027 172.787 227.447 173.147 227.94 173.4C228.447 173.653 229.014 173.78 229.64 173.78C230.28 173.78 230.84 173.653 231.32 173.4C231.8 173.133 232.254 172.767 232.68 172.3L233.6 173.34C233.08 173.94 232.494 174.407 231.84 174.74C231.187 175.073 230.434 175.24 229.58 175.24ZM239.666 175.24C239.066 175.24 238.493 175.127 237.946 174.9C237.413 174.673 236.939 174.347 236.526 173.92C236.113 173.48 235.779 172.947 235.526 172.32C235.286 171.68 235.166 170.96 235.166 170.16C235.166 169.347 235.286 168.627 235.526 168C235.779 167.36 236.113 166.82 236.526 166.38C236.939 165.94 237.413 165.607 237.946 165.38C238.493 165.153 239.066 165.04 239.666 165.04C240.266 165.04 240.833 165.153 241.366 165.38C241.913 165.607 242.393 165.94 242.806 166.38C243.219 166.82 243.546 167.36 243.786 168C244.039 168.627 244.166 169.347 244.166 170.16C244.166 170.96 244.039 171.68 243.786 172.32C243.546 172.947 243.219 173.48 242.806 173.92C242.393 174.347 241.913 174.673 241.366 174.9C240.833 175.127 240.266 175.24 239.666 175.24ZM239.666 173.88C240.079 173.88 240.459 173.793 240.806 173.62C241.153 173.433 241.446 173.18 241.686 172.86C241.939 172.527 242.133 172.133 242.266 171.68C242.399 171.227 242.466 170.72 242.466 170.16C242.466 169.6 242.399 169.093 242.266 168.64C242.133 168.173 241.939 167.773 241.686 167.44C241.446 167.107 241.153 166.853 240.806 166.68C240.459 166.493 240.079 166.4 239.666 166.4C239.253 166.4 238.873 166.493 238.526 166.68C238.179 166.853 237.879 167.107 237.626 167.44C237.386 167.773 237.199 168.173 237.066 168.64C236.933 169.093 236.866 169.6 236.866 170.16C236.866 170.72 236.933 171.227 237.066 171.68C237.199 172.133 237.386 172.527 237.626 172.86C237.879 173.18 238.179 173.433 238.526 173.62C238.873 173.793 239.253 173.88 239.666 173.88ZM246.726 175V165.28H248.366V175H246.726ZM247.566 163.28C247.246 163.28 246.973 163.18 246.746 162.98C246.533 162.78 246.426 162.527 246.426 162.22C246.426 161.9 246.533 161.647 246.746 161.46C246.973 161.26 247.246 161.16 247.566 161.16C247.886 161.16 248.153 161.26 248.366 161.46C248.593 161.647 248.706 161.9 248.706 162.22C248.706 162.527 248.593 162.78 248.366 162.98C248.153 163.18 247.886 163.28 247.566 163.28ZM251.648 175V165.28H253.008L253.148 166.68H253.208C253.674 166.213 254.161 165.827 254.668 165.52C255.188 165.2 255.788 165.04 256.468 165.04C257.494 165.04 258.241 165.36 258.708 166C259.188 166.64 259.428 167.587 259.428 168.84V175H257.788V169.06C257.788 168.14 257.641 167.48 257.348 167.08C257.054 166.667 256.588 166.46 255.948 166.46C255.441 166.46 254.994 166.587 254.608 166.84C254.221 167.093 253.781 167.467 253.288 167.96V175H251.648ZM262.745 175V161.88H266.025C268.052 161.88 269.592 162.44 270.645 163.56C271.699 164.68 272.225 166.287 272.225 168.38C272.225 169.42 272.092 170.353 271.825 171.18C271.559 171.993 271.165 172.687 270.645 173.26C270.125 173.82 269.485 174.253 268.725 174.56C267.965 174.853 267.092 175 266.105 175H262.745ZM264.405 173.64H265.905C267.439 173.64 268.585 173.18 269.345 172.26C270.119 171.34 270.505 170.047 270.505 168.38C270.505 166.713 270.119 165.44 269.345 164.56C268.585 163.68 267.439 163.24 265.905 163.24H264.405V173.64ZM280.01 175.24C279.183 175.24 278.423 175.087 277.73 174.78C277.037 174.473 276.43 174.033 275.91 173.46C275.403 172.873 275.003 172.16 274.71 171.32C274.43 170.467 274.29 169.507 274.29 168.44C274.29 167.387 274.437 166.44 274.73 165.6C275.023 164.76 275.43 164.047 275.95 163.46C276.47 162.873 277.083 162.427 277.79 162.12C278.497 161.8 279.27 161.64 280.11 161.64C280.91 161.64 281.61 161.807 282.21 162.14C282.823 162.46 283.323 162.833 283.71 163.26L282.81 164.34C282.463 163.967 282.07 163.667 281.63 163.44C281.19 163.213 280.69 163.1 280.13 163.1C279.503 163.1 278.937 163.227 278.43 163.48C277.923 163.72 277.49 164.073 277.13 164.54C276.77 164.993 276.49 165.547 276.29 166.2C276.103 166.853 276.01 167.587 276.01 168.4C276.01 169.227 276.103 169.973 276.29 170.64C276.49 171.293 276.763 171.853 277.11 172.32C277.457 172.787 277.877 173.147 278.37 173.4C278.877 173.653 279.443 173.78 280.07 173.78C280.71 173.78 281.27 173.653 281.75 173.4C282.23 173.133 282.683 172.767 283.11 172.3L284.03 173.34C283.51 173.94 282.923 174.407 282.27 174.74C281.617 175.073 280.863 175.24 280.01 175.24ZM284.898 175L288.718 168.22L285.158 161.88H286.998L288.778 165.24C288.951 165.547 289.111 165.847 289.258 166.14C289.418 166.42 289.598 166.753 289.798 167.14H289.878C290.064 166.753 290.224 166.42 290.358 166.14C290.504 165.847 290.658 165.547 290.818 165.24L292.558 161.88H294.318L290.738 168.3L294.558 175H292.718L290.798 171.46C290.624 171.14 290.444 170.813 290.258 170.48C290.084 170.133 289.891 169.76 289.678 169.36H289.598C289.411 169.76 289.231 170.133 289.058 170.48C288.884 170.813 288.718 171.14 288.558 171.46L286.658 175H284.898Z" fill="white"/>
<path d="M869.704 140V137.32C872.078 135.027 874.118 132.987 875.824 131.2C877.558 129.387 878.891 127.747 879.824 126.28C880.758 124.787 881.224 123.4 881.224 122.12C881.224 120.787 880.864 119.72 880.144 118.92C879.424 118.12 878.384 117.72 877.024 117.72C876.038 117.72 875.131 118 874.304 118.56C873.504 119.12 872.758 119.787 872.064 120.56L869.504 118C870.678 116.747 871.891 115.787 873.144 115.12C874.398 114.427 875.891 114.08 877.624 114.08C880.078 114.08 882.024 114.787 883.464 116.2C884.931 117.613 885.664 119.507 885.664 121.88C885.664 123.373 885.238 124.907 884.384 126.48C883.558 128.027 882.438 129.613 881.024 131.24C879.638 132.867 878.104 134.573 876.424 136.36C877.091 136.307 877.811 136.253 878.584 136.2C879.358 136.12 880.051 136.08 880.664 136.08H886.904V140H869.704ZM898.132 140.48C895.492 140.48 893.386 139.333 891.812 137.04C890.266 134.747 889.492 131.453 889.492 127.16C889.492 122.867 890.266 119.613 891.812 117.4C893.386 115.187 895.492 114.08 898.132 114.08C900.772 114.08 902.866 115.187 904.412 117.4C905.986 119.613 906.772 122.867 906.772 127.16C906.772 131.453 905.986 134.747 904.412 137.04C902.866 139.333 900.772 140.48 898.132 140.48ZM898.132 136.88C898.959 136.88 899.692 136.573 900.332 135.96C900.972 135.32 901.466 134.293 901.812 132.88C902.186 131.467 902.372 129.56 902.372 127.16C902.372 124.76 902.186 122.867 901.812 121.48C901.466 120.093 900.972 119.12 900.332 118.56C899.692 117.973 898.959 117.68 898.132 117.68C897.332 117.68 896.612 117.973 895.972 118.56C895.332 119.12 894.826 120.093 894.452 121.48C894.079 122.867 893.892 124.76 893.892 127.16C893.892 129.56 894.079 131.467 894.452 132.88C894.826 134.293 895.332 135.32 895.972 135.96C896.612 136.573 897.332 136.88 898.132 136.88ZM917.84 140.48C915.2 140.48 913.093 139.333 911.52 137.04C909.973 134.747 909.2 131.453 909.2 127.16C909.2 122.867 909.973 119.613 911.52 117.4C913.093 115.187 915.2 114.08 917.84 114.08C920.48 114.08 922.573 115.187 924.12 117.4C925.693 119.613 926.48 122.867 926.48 127.16C926.48 131.453 925.693 134.747 924.12 137.04C922.573 139.333 920.48 140.48 917.84 140.48ZM917.84 136.88C918.667 136.88 919.4 136.573 920.04 135.96C920.68 135.32 921.173 134.293 921.52 132.88C921.893 131.467 922.08 129.56 922.08 127.16C922.08 124.76 921.893 122.867 921.52 121.48C921.173 120.093 920.68 119.12 920.04 118.56C919.4 117.973 918.667 117.68 917.84 117.68C917.04 117.68 916.32 117.973 915.68 118.56C915.04 119.12 914.533 120.093 914.16 121.48C913.787 122.867 913.6 124.76 913.6 127.16C913.6 129.56 913.787 131.467 914.16 132.88C914.533 134.293 915.04 135.32 915.68 135.96C916.32 136.573 917.04 136.88 917.84 136.88ZM935.828 136.04V128.48H928.668V125.12H935.828V117.56H939.308V125.12H946.468V128.48H939.308V136.04H935.828Z" fill="white"/>
<path d="M891.508 175.24C890.415 175.24 889.435 174.973 888.568 174.44C887.715 173.893 887.035 173.113 886.528 172.1C886.035 171.087 885.788 169.867 885.788 168.44C885.788 167.027 886.041 165.813 886.548 164.8C887.055 163.787 887.748 163.007 888.628 162.46C889.508 161.913 890.501 161.64 891.608 161.64C892.408 161.64 893.115 161.807 893.728 162.14C894.341 162.46 894.835 162.833 895.208 163.26L894.308 164.34C893.961 163.967 893.568 163.667 893.128 163.44C892.688 163.213 892.188 163.1 891.628 163.1C890.801 163.1 890.075 163.32 889.448 163.76C888.835 164.187 888.355 164.793 888.008 165.58C887.675 166.367 887.508 167.307 887.508 168.4C887.508 169.493 887.675 170.447 888.008 171.26C888.341 172.06 888.808 172.68 889.408 173.12C890.021 173.56 890.741 173.78 891.568 173.78C892.195 173.78 892.755 173.647 893.248 173.38C893.741 173.113 894.195 172.753 894.608 172.3L895.528 173.34C895.008 173.94 894.421 174.407 893.768 174.74C893.115 175.073 892.361 175.24 891.508 175.24ZM901.594 175.24C900.807 175.24 900.067 175.04 899.374 174.64C898.694 174.24 898.14 173.66 897.714 172.9C897.3 172.14 897.094 171.227 897.094 170.16C897.094 169.067 897.3 168.14 897.714 167.38C898.14 166.62 898.694 166.04 899.374 165.64C900.067 165.24 900.807 165.04 901.594 165.04C902.394 165.04 903.134 165.24 903.814 165.64C904.494 166.04 905.04 166.62 905.454 167.38C905.88 168.14 906.094 169.067 906.094 170.16C906.094 171.227 905.88 172.14 905.454 172.9C905.04 173.66 904.494 174.24 903.814 174.64C903.134 175.04 902.394 175.24 901.594 175.24ZM901.594 173.88C902.434 173.88 903.107 173.54 903.614 172.86C904.134 172.167 904.394 171.267 904.394 170.16C904.394 169.04 904.134 168.133 903.614 167.44C903.107 166.747 902.434 166.4 901.594 166.4C900.767 166.4 900.094 166.747 899.574 167.44C899.054 168.133 898.794 169.04 898.794 170.16C898.794 171.267 899.054 172.167 899.574 172.86C900.094 173.54 900.767 173.88 901.594 173.88ZM908.654 175V165.28H910.294V175H908.654ZM909.494 163.28C909.174 163.28 908.907 163.187 908.694 163C908.494 162.8 908.394 162.533 908.394 162.2C908.394 161.88 908.494 161.62 908.694 161.42C908.907 161.22 909.174 161.12 909.494 161.12C909.814 161.12 910.074 161.22 910.274 161.42C910.487 161.62 910.594 161.88 910.594 162.2C910.594 162.533 910.487 162.8 910.274 163C910.074 163.187 909.814 163.28 909.494 163.28ZM913.576 175V165.28H914.936L915.076 166.68H915.136C915.602 166.213 916.096 165.827 916.616 165.52C917.136 165.2 917.729 165.04 918.396 165.04C919.422 165.04 920.169 165.367 920.636 166.02C921.116 166.66 921.356 167.6 921.356 168.84V175H919.716V169.06C919.716 168.153 919.569 167.493 919.276 167.08C918.982 166.667 918.516 166.46 917.876 166.46C917.382 166.46 916.936 166.587 916.536 166.84C916.149 167.093 915.709 167.467 915.216 167.96V175H913.576ZM927.053 175.24C926.36 175.24 925.7 175.113 925.073 174.86C924.446 174.593 923.9 174.273 923.433 173.9L924.253 172.8C924.68 173.133 925.12 173.413 925.573 173.64C926.026 173.853 926.54 173.96 927.113 173.96C927.753 173.96 928.233 173.813 928.553 173.52C928.873 173.213 929.033 172.853 929.033 172.44C929.033 172.107 928.92 171.827 928.693 171.6C928.48 171.373 928.2 171.187 927.853 171.04C927.52 170.88 927.173 170.733 926.813 170.6C926.36 170.427 925.913 170.233 925.473 170.02C925.033 169.793 924.673 169.507 924.393 169.16C924.113 168.8 923.973 168.347 923.973 167.8C923.973 167.013 924.266 166.36 924.853 165.84C925.453 165.307 926.28 165.04 927.333 165.04C927.933 165.04 928.493 165.147 929.013 165.36C929.533 165.573 929.98 165.833 930.353 166.14L929.553 167.18C929.22 166.927 928.873 166.72 928.513 166.56C928.153 166.4 927.76 166.32 927.333 166.32C926.72 166.32 926.266 166.46 925.973 166.74C925.693 167.02 925.553 167.347 925.553 167.72C925.553 168.027 925.653 168.28 925.853 168.48C926.053 168.667 926.313 168.833 926.633 168.98C926.953 169.113 927.293 169.253 927.653 169.4C928.12 169.573 928.58 169.773 929.033 170C929.486 170.213 929.86 170.507 930.153 170.88C930.46 171.24 930.613 171.727 930.613 172.34C930.613 172.86 930.473 173.34 930.193 173.78C929.926 174.22 929.526 174.573 928.993 174.84C928.473 175.107 927.826 175.24 927.053 175.24Z" fill="white"/>
<path d="M443.891 140V113.84H448.531V140H443.891ZM454.38 140V113.84H459.14L467.3 128.56L469.98 134.12H470.14C470.033 132.787 469.9 131.333 469.74 129.76C469.607 128.187 469.54 126.667 469.54 125.2V113.84H473.98V140H469.22L461.06 125.28L458.38 119.72H458.22C458.327 121.107 458.447 122.56 458.58 124.08C458.74 125.6 458.82 127.093 458.82 128.56V140H454.38ZM479.83 140V113.84H488.67C490.483 113.84 492.11 114.08 493.55 114.56C495.017 115.04 496.163 115.853 496.99 117C497.843 118.12 498.27 119.653 498.27 121.6C498.27 123.6 497.79 125.213 496.83 126.44C495.897 127.667 494.643 128.547 493.07 129.08L499.31 140H494.11L488.47 129.76H484.47V140H479.83ZM484.47 126.08H488.19C489.977 126.08 491.337 125.707 492.27 124.96C493.23 124.187 493.71 123.067 493.71 121.6C493.71 120.107 493.23 119.067 492.27 118.48C491.337 117.867 489.977 117.56 488.19 117.56H484.47V126.08ZM516.87 140.48C515.217 140.48 513.737 140.187 512.43 139.6C511.123 138.987 510.097 138.16 509.35 137.12C508.603 136.08 508.23 134.867 508.23 133.48C508.23 131.907 508.697 130.587 509.63 129.52C510.563 128.453 511.63 127.6 512.83 126.96V126.8C511.843 126.107 511.003 125.28 510.31 124.32C509.643 123.333 509.31 122.173 509.31 120.84C509.31 119.453 509.643 118.267 510.31 117.28C510.977 116.267 511.883 115.48 513.03 114.92C514.203 114.36 515.523 114.08 516.99 114.08C519.283 114.08 521.097 114.72 522.43 116C523.79 117.253 524.47 118.907 524.47 120.96C524.47 122.213 524.11 123.347 523.39 124.36C522.67 125.373 521.897 126.187 521.07 126.8V126.96C522.243 127.627 523.27 128.467 524.15 129.48C525.03 130.493 525.47 131.853 525.47 133.56C525.47 134.867 525.11 136.04 524.39 137.08C523.67 138.12 522.67 138.947 521.39 139.56C520.11 140.173 518.603 140.48 516.87 140.48ZM518.55 125.64C519.243 124.947 519.763 124.24 520.11 123.52C520.483 122.8 520.67 122.04 520.67 121.24C520.67 120.12 520.337 119.2 519.67 118.48C519.003 117.733 518.083 117.36 516.91 117.36C515.923 117.36 515.097 117.667 514.43 118.28C513.763 118.893 513.43 119.747 513.43 120.84C513.43 121.693 513.657 122.413 514.11 123C514.563 123.56 515.177 124.053 515.95 124.48C516.75 124.88 517.617 125.267 518.55 125.64ZM516.95 137.2C518.177 137.2 519.177 136.867 519.95 136.2C520.75 135.507 521.15 134.573 521.15 133.4C521.15 132.467 520.87 131.707 520.31 131.12C519.777 130.533 519.043 130.027 518.11 129.6C517.203 129.147 516.177 128.693 515.03 128.24C514.23 128.827 513.563 129.52 513.03 130.32C512.523 131.12 512.27 132.013 512.27 133C512.27 134.253 512.723 135.267 513.63 136.04C514.537 136.813 515.643 137.2 516.95 137.2ZM536.538 140.48C533.898 140.48 531.791 139.333 530.218 137.04C528.671 134.747 527.898 131.453 527.898 127.16C527.898 122.867 528.671 119.613 530.218 117.4C531.791 115.187 533.898 114.08 536.538 114.08C539.178 114.08 541.271 115.187 542.818 117.4C544.391 119.613 545.178 122.867 545.178 127.16C545.178 131.453 544.391 134.747 542.818 137.04C541.271 139.333 539.178 140.48 536.538 140.48ZM536.538 136.88C537.364 136.88 538.098 136.573 538.738 135.96C539.378 135.32 539.871 134.293 540.218 132.88C540.591 131.467 540.778 129.56 540.778 127.16C540.778 124.76 540.591 122.867 540.218 121.48C539.871 120.093 539.378 119.12 538.738 118.56C538.098 117.973 537.364 117.68 536.538 117.68C535.738 117.68 535.018 117.973 534.378 118.56C533.738 119.12 533.231 120.093 532.858 121.48C532.484 122.867 532.298 124.76 532.298 127.16C532.298 129.56 532.484 131.467 532.858 132.88C533.231 134.293 533.738 135.32 534.378 135.96C535.018 136.573 535.738 136.88 536.538 136.88ZM548.885 147.28L547.885 144.76C549.192 144.253 550.192 143.56 550.885 142.68C551.605 141.827 551.952 140.907 551.925 139.92C551.872 139.92 551.805 139.92 551.725 139.92C551.672 139.92 551.619 139.92 551.565 139.92C550.792 139.92 550.099 139.68 549.485 139.2C548.899 138.693 548.605 137.987 548.605 137.08C548.605 136.227 548.912 135.547 549.525 135.04C550.139 134.507 550.859 134.24 551.685 134.24C552.779 134.24 553.619 134.653 554.205 135.48C554.819 136.307 555.125 137.467 555.125 138.96C555.125 140.907 554.579 142.6 553.485 144.04C552.392 145.507 550.859 146.587 548.885 147.28ZM566.461 140.48C563.821 140.48 561.714 139.333 560.141 137.04C558.594 134.747 557.821 131.453 557.821 127.16C557.821 122.867 558.594 119.613 560.141 117.4C561.714 115.187 563.821 114.08 566.461 114.08C569.101 114.08 571.194 115.187 572.741 117.4C574.314 119.613 575.101 122.867 575.101 127.16C575.101 131.453 574.314 134.747 572.741 137.04C571.194 139.333 569.101 140.48 566.461 140.48ZM566.461 136.88C567.288 136.88 568.021 136.573 568.661 135.96C569.301 135.32 569.794 134.293 570.141 132.88C570.514 131.467 570.701 129.56 570.701 127.16C570.701 124.76 570.514 122.867 570.141 121.48C569.794 120.093 569.301 119.12 568.661 118.56C568.021 117.973 567.288 117.68 566.461 117.68C565.661 117.68 564.941 117.973 564.301 118.56C563.661 119.12 563.154 120.093 562.781 121.48C562.408 122.867 562.221 124.76 562.221 127.16C562.221 129.56 562.408 131.467 562.781 132.88C563.154 134.293 563.661 135.32 564.301 135.96C564.941 136.573 565.661 136.88 566.461 136.88ZM586.169 140.48C583.529 140.48 581.422 139.333 579.849 137.04C578.302 134.747 577.529 131.453 577.529 127.16C577.529 122.867 578.302 119.613 579.849 117.4C581.422 115.187 583.529 114.08 586.169 114.08C588.809 114.08 590.902 115.187 592.449 117.4C594.022 119.613 594.809 122.867 594.809 127.16C594.809 131.453 594.022 134.747 592.449 137.04C590.902 139.333 588.809 140.48 586.169 140.48ZM586.169 136.88C586.996 136.88 587.729 136.573 588.369 135.96C589.009 135.32 589.502 134.293 589.849 132.88C590.222 131.467 590.409 129.56 590.409 127.16C590.409 124.76 590.222 122.867 589.849 121.48C589.502 120.093 589.009 119.12 588.369 118.56C587.729 117.973 586.996 117.68 586.169 117.68C585.369 117.68 584.649 117.973 584.009 118.56C583.369 119.12 582.862 120.093 582.489 121.48C582.116 122.867 581.929 124.76 581.929 127.16C581.929 129.56 582.116 131.467 582.489 132.88C582.862 134.293 583.369 135.32 584.009 135.96C584.649 136.573 585.369 136.88 586.169 136.88ZM605.877 140.48C603.237 140.48 601.13 139.333 599.557 137.04C598.01 134.747 597.237 131.453 597.237 127.16C597.237 122.867 598.01 119.613 599.557 117.4C601.13 115.187 603.237 114.08 605.877 114.08C608.517 114.08 610.61 115.187 612.157 117.4C613.73 119.613 614.517 122.867 614.517 127.16C614.517 131.453 613.73 134.747 612.157 137.04C610.61 139.333 608.517 140.48 605.877 140.48ZM605.877 136.88C606.703 136.88 607.437 136.573 608.077 135.96C608.717 135.32 609.21 134.293 609.557 132.88C609.93 131.467 610.117 129.56 610.117 127.16C610.117 124.76 609.93 122.867 609.557 121.48C609.21 120.093 608.717 119.12 608.077 118.56C607.437 117.973 606.703 117.68 605.877 117.68C605.077 117.68 604.357 117.973 603.717 118.56C603.077 119.12 602.57 120.093 602.197 121.48C601.823 122.867 601.637 124.76 601.637 127.16C601.637 129.56 601.823 131.467 602.197 132.88C602.57 134.293 603.077 135.32 603.717 135.96C604.357 136.573 605.077 136.88 605.877 136.88ZM636.312 140.48C634.126 140.48 632.139 139.96 630.352 138.92C628.566 137.88 627.139 136.36 626.072 134.36C625.032 132.333 624.512 129.88 624.512 127C624.512 124.147 625.046 121.707 626.112 119.68C627.206 117.627 628.659 116.067 630.472 115C632.286 113.907 634.286 113.36 636.472 113.36C638.126 113.36 639.592 113.693 640.872 114.36C642.152 115.027 643.206 115.8 644.032 116.68L641.552 119.68C640.886 118.987 640.139 118.44 639.312 118.04C638.512 117.613 637.606 117.4 636.592 117.4C635.179 117.4 633.912 117.787 632.792 118.56C631.699 119.307 630.832 120.387 630.192 121.8C629.579 123.213 629.272 124.907 629.272 126.88C629.272 129.867 629.926 132.213 631.232 133.92C632.539 135.6 634.286 136.44 636.472 136.44C637.646 136.44 638.686 136.2 639.592 135.72C640.499 135.213 641.326 134.56 642.072 133.76L644.552 136.68C643.486 137.907 642.259 138.853 640.872 139.52C639.512 140.16 637.992 140.48 636.312 140.48ZM647.719 140V120.36H651.519L651.839 123.84H651.999C652.693 122.56 653.533 121.587 654.519 120.92C655.506 120.227 656.519 119.88 657.559 119.88C658.493 119.88 659.239 120.013 659.799 120.28L658.999 124.28C658.653 124.173 658.333 124.093 658.039 124.04C657.746 123.987 657.386 123.96 656.959 123.96C656.186 123.96 655.373 124.267 654.519 124.88C653.666 125.467 652.933 126.507 652.319 128V140H647.719ZM667.441 136.04V128.48H660.281V125.12H667.441V117.56H670.921V125.12H678.081V128.48H670.921V136.04H667.441Z" fill="white"/>
<path d="M441.999 167.66L441.379 169.66H445.319L444.699 167.66C444.459 166.927 444.233 166.2 444.019 165.48C443.806 164.747 443.593 164 443.379 163.24H443.299C443.099 164 442.893 164.747 442.679 165.48C442.466 166.2 442.239 166.927 441.999 167.66ZM437.999 175L442.439 161.88H444.319L448.759 175H446.979L445.739 171H440.959L439.699 175H437.999ZM454.298 175.24C453.445 175.24 452.672 175.04 451.978 174.64C451.285 174.24 450.738 173.66 450.338 172.9C449.938 172.14 449.738 171.227 449.738 170.16C449.738 169.067 449.952 168.14 450.378 167.38C450.818 166.62 451.392 166.04 452.098 165.64C452.818 165.24 453.592 165.04 454.418 165.04C455.058 165.04 455.605 165.153 456.058 165.38C456.525 165.607 456.925 165.873 457.258 166.18L456.418 167.26C456.138 167.007 455.838 166.8 455.518 166.64C455.212 166.48 454.865 166.4 454.478 166.4C453.892 166.4 453.365 166.56 452.898 166.88C452.445 167.187 452.085 167.627 451.818 168.2C451.565 168.76 451.438 169.413 451.438 170.16C451.438 171.267 451.712 172.167 452.258 172.86C452.818 173.54 453.545 173.88 454.438 173.88C454.892 173.88 455.312 173.787 455.698 173.6C456.085 173.4 456.425 173.167 456.718 172.9L457.438 174C456.998 174.387 456.512 174.693 455.978 174.92C455.445 175.133 454.885 175.24 454.298 175.24ZM462.99 175.24C462.136 175.24 461.363 175.04 460.67 174.64C459.976 174.24 459.43 173.66 459.03 172.9C458.63 172.14 458.43 171.227 458.43 170.16C458.43 169.067 458.643 168.14 459.07 167.38C459.51 166.62 460.083 166.04 460.79 165.64C461.51 165.24 462.283 165.04 463.11 165.04C463.75 165.04 464.296 165.153 464.75 165.38C465.216 165.607 465.616 165.873 465.95 166.18L465.11 167.26C464.83 167.007 464.53 166.8 464.21 166.64C463.903 166.48 463.556 166.4 463.17 166.4C462.583 166.4 462.056 166.56 461.59 166.88C461.136 167.187 460.776 167.627 460.51 168.2C460.256 168.76 460.13 169.413 460.13 170.16C460.13 171.267 460.403 172.167 460.95 172.86C461.51 173.54 462.236 173.88 463.13 173.88C463.583 173.88 464.003 173.787 464.39 173.6C464.776 173.4 465.116 173.167 465.41 172.9L466.13 174C465.69 174.387 465.203 174.693 464.67 174.92C464.136 175.133 463.576 175.24 462.99 175.24ZM471.111 175.24C470.084 175.24 469.331 174.92 468.851 174.28C468.371 173.627 468.131 172.68 468.131 171.44V165.28H469.791V171.22C469.791 172.127 469.931 172.787 470.211 173.2C470.504 173.613 470.971 173.82 471.611 173.82C472.118 173.82 472.564 173.693 472.951 173.44C473.351 173.173 473.778 172.753 474.231 172.18V165.28H475.871V175H474.511L474.371 173.48H474.311C473.858 174.013 473.378 174.44 472.871 174.76C472.364 175.08 471.778 175.24 471.111 175.24ZM479.15 175V165.28H480.51L480.65 166.68H480.71C481.136 166.213 481.603 165.827 482.11 165.52C482.616 165.2 483.156 165.04 483.73 165.04C484.476 165.04 485.056 165.207 485.47 165.54C485.896 165.86 486.21 166.313 486.41 166.9C486.916 166.353 487.43 165.907 487.95 165.56C488.47 165.213 489.023 165.04 489.61 165.04C490.61 165.04 491.35 165.367 491.83 166.02C492.323 166.66 492.57 167.6 492.57 168.84V175H490.93V169.06C490.93 168.153 490.783 167.493 490.49 167.08C490.196 166.667 489.743 166.46 489.13 166.46C488.41 166.46 487.596 166.96 486.69 167.96V175H485.05V169.06C485.05 168.153 484.903 167.493 484.61 167.08C484.316 166.667 483.856 166.46 483.23 166.46C482.51 166.46 481.696 166.96 480.79 167.96V175H479.15ZM498.572 175.24C497.545 175.24 496.792 174.92 496.312 174.28C495.832 173.627 495.592 172.68 495.592 171.44V165.28H497.252V171.22C497.252 172.127 497.392 172.787 497.672 173.2C497.965 173.613 498.432 173.82 499.072 173.82C499.578 173.82 500.025 173.693 500.412 173.44C500.812 173.173 501.238 172.753 501.692 172.18V165.28H503.332V175H501.972L501.832 173.48H501.772C501.318 174.013 500.838 174.44 500.332 174.76C499.825 175.08 499.238 175.24 498.572 175.24ZM508.351 175.24C507.737 175.24 507.291 175.053 507.011 174.68C506.744 174.293 506.611 173.747 506.611 173.04V160.76H508.251V173.16C508.251 173.413 508.297 173.6 508.391 173.72C508.484 173.827 508.591 173.88 508.711 173.88C508.764 173.88 508.811 173.88 508.851 173.88C508.904 173.867 508.977 173.853 509.071 173.84L509.291 175.08C509.184 175.133 509.057 175.173 508.911 175.2C508.764 175.227 508.577 175.24 508.351 175.24ZM513.948 175.24C513.135 175.24 512.455 175 511.908 174.52C511.375 174.027 511.108 173.347 511.108 172.48C511.108 171.413 511.582 170.6 512.528 170.04C513.488 169.467 515.002 169.067 517.068 168.84C517.068 168.427 517.008 168.033 516.888 167.66C516.782 167.287 516.582 166.987 516.288 166.76C516.008 166.52 515.602 166.4 515.068 166.4C514.508 166.4 513.982 166.507 513.488 166.72C512.995 166.933 512.555 167.173 512.168 167.44L511.528 166.3C511.982 166.007 512.535 165.727 513.188 165.46C513.855 165.18 514.575 165.04 515.348 165.04C516.535 165.04 517.395 165.407 517.928 166.14C518.462 166.86 518.728 167.827 518.728 169.04V175H517.368L517.228 173.84H517.168C516.715 174.213 516.215 174.54 515.668 174.82C515.135 175.1 514.562 175.24 513.948 175.24ZM514.428 173.92C514.895 173.92 515.335 173.807 515.748 173.58C516.162 173.353 516.602 173.033 517.068 172.62V169.92C515.455 170.12 514.322 170.42 513.668 170.82C513.028 171.22 512.708 171.733 512.708 172.36C512.708 172.907 512.875 173.307 513.208 173.56C513.542 173.8 513.948 173.92 514.428 173.92ZM524.573 175.24C523.533 175.24 522.806 174.94 522.393 174.34C521.993 173.74 521.793 172.96 521.793 172V166.62H520.353V165.38L521.873 165.28L522.073 162.56H523.453V165.28H526.073V166.62H523.453V172.02C523.453 172.62 523.56 173.087 523.773 173.42C524 173.74 524.393 173.9 524.953 173.9C525.126 173.9 525.313 173.873 525.513 173.82C525.713 173.753 525.893 173.693 526.053 173.64L526.373 174.88C526.106 174.973 525.813 175.053 525.493 175.12C525.186 175.2 524.88 175.24 524.573 175.24ZM531.937 175.24C531.071 175.24 530.284 175.04 529.577 174.64C528.871 174.227 528.311 173.64 527.897 172.88C527.484 172.12 527.277 171.213 527.277 170.16C527.277 169.093 527.484 168.18 527.897 167.42C528.324 166.66 528.871 166.073 529.537 165.66C530.204 165.247 530.904 165.04 531.637 165.04C532.877 165.04 533.831 165.453 534.497 166.28C535.177 167.107 535.517 168.213 535.517 169.6C535.517 169.773 535.511 169.947 535.497 170.12C535.497 170.28 535.484 170.42 535.457 170.54H528.897C528.964 171.567 529.284 172.387 529.857 173C530.444 173.613 531.204 173.92 532.137 173.92C532.604 173.92 533.031 173.853 533.417 173.72C533.817 173.573 534.197 173.387 534.557 173.16L535.137 174.24C534.724 174.507 534.251 174.74 533.717 174.94C533.197 175.14 532.604 175.24 531.937 175.24ZM528.877 169.36H534.077C534.077 168.373 533.864 167.627 533.437 167.12C533.024 166.6 532.437 166.34 531.677 166.34C530.997 166.34 530.384 166.607 529.837 167.14C529.304 167.66 528.984 168.4 528.877 169.36ZM541.239 175.24C540.026 175.24 539.053 174.8 538.319 173.92C537.586 173.027 537.219 171.773 537.219 170.16C537.219 169.107 537.413 168.2 537.799 167.44C538.199 166.667 538.719 166.073 539.359 165.66C540.013 165.247 540.706 165.04 541.439 165.04C541.999 165.04 542.486 165.14 542.899 165.34C543.313 165.54 543.733 165.813 544.159 166.16L544.079 164.5V160.76H545.739V175H544.379L544.239 173.86H544.179C543.806 174.233 543.366 174.56 542.859 174.84C542.353 175.107 541.813 175.24 541.239 175.24ZM541.599 173.86C542.453 173.86 543.279 173.413 544.079 172.52V167.44C543.666 167.067 543.266 166.807 542.879 166.66C542.506 166.5 542.119 166.42 541.719 166.42C541.199 166.42 540.726 166.58 540.299 166.9C539.886 167.207 539.553 167.64 539.299 168.2C539.046 168.747 538.919 169.393 538.919 170.14C538.919 171.3 539.153 172.213 539.619 172.88C540.086 173.533 540.746 173.86 541.599 173.86ZM555.897 175V163.28H551.937V161.88H561.537V163.28H557.577V175H555.897ZM562.822 175V165.28H564.182L564.322 167.04H564.382C564.715 166.427 565.122 165.94 565.602 165.58C566.082 165.22 566.595 165.04 567.142 165.04C567.528 165.04 567.875 165.107 568.182 165.24L567.862 166.68C567.702 166.627 567.555 166.587 567.422 166.56C567.288 166.533 567.122 166.52 566.922 166.52C566.508 166.52 566.075 166.687 565.622 167.02C565.182 167.353 564.795 167.933 564.462 168.76V175H562.822ZM571.507 175.24C570.694 175.24 570.014 175 569.467 174.52C568.934 174.027 568.667 173.347 568.667 172.48C568.667 171.413 569.14 170.6 570.087 170.04C571.047 169.467 572.56 169.067 574.627 168.84C574.627 168.427 574.567 168.033 574.447 167.66C574.34 167.287 574.14 166.987 573.847 166.76C573.567 166.52 573.16 166.4 572.627 166.4C572.067 166.4 571.54 166.507 571.047 166.72C570.554 166.933 570.114 167.173 569.727 167.44L569.087 166.3C569.54 166.007 570.094 165.727 570.747 165.46C571.414 165.18 572.134 165.04 572.907 165.04C574.094 165.04 574.954 165.407 575.487 166.14C576.02 166.86 576.287 167.827 576.287 169.04V175H574.927L574.787 173.84H574.727C574.274 174.213 573.774 174.54 573.227 174.82C572.694 175.1 572.12 175.24 571.507 175.24ZM571.987 173.92C572.454 173.92 572.894 173.807 573.307 173.58C573.72 173.353 574.16 173.033 574.627 172.62V169.92C573.014 170.12 571.88 170.42 571.227 170.82C570.587 171.22 570.267 171.733 570.267 172.36C570.267 172.907 570.434 173.307 570.767 173.56C571.1 173.8 571.507 173.92 571.987 173.92ZM582.665 175.24C581.452 175.24 580.478 174.8 579.745 173.92C579.012 173.027 578.645 171.773 578.645 170.16C578.645 169.107 578.838 168.2 579.225 167.44C579.625 166.667 580.145 166.073 580.785 165.66C581.438 165.247 582.132 165.04 582.865 165.04C583.425 165.04 583.912 165.14 584.325 165.34C584.738 165.54 585.158 165.813 585.585 166.16L585.505 164.5V160.76H587.165V175H585.805L585.665 173.86H585.605C585.232 174.233 584.792 174.56 584.285 174.84C583.778 175.107 583.238 175.24 582.665 175.24ZM583.025 173.86C583.878 173.86 584.705 173.413 585.505 172.52V167.44C585.092 167.067 584.692 166.807 584.305 166.66C583.932 166.5 583.545 166.42 583.145 166.42C582.625 166.42 582.152 166.58 581.725 166.9C581.312 167.207 580.978 167.64 580.725 168.2C580.472 168.747 580.345 169.393 580.345 170.14C580.345 171.3 580.578 172.213 581.045 172.88C581.512 173.533 582.172 173.86 583.025 173.86ZM590.439 175V165.28H592.079V175H590.439ZM591.279 163.28C590.959 163.28 590.692 163.187 590.479 163C590.279 162.8 590.179 162.533 590.179 162.2C590.179 161.88 590.279 161.62 590.479 161.42C590.692 161.22 590.959 161.12 591.279 161.12C591.599 161.12 591.859 161.22 592.059 161.42C592.272 161.62 592.379 161.88 592.379 162.2C592.379 162.533 592.272 162.8 592.059 163C591.859 163.187 591.599 163.28 591.279 163.28ZM595.361 175V165.28H596.721L596.861 166.68H596.921C597.387 166.213 597.881 165.827 598.401 165.52C598.921 165.2 599.514 165.04 600.181 165.04C601.207 165.04 601.954 165.367 602.421 166.02C602.901 166.66 603.141 167.6 603.141 168.84V175H601.501V169.06C601.501 168.153 601.354 167.493 601.061 167.08C600.767 166.667 600.301 166.46 599.661 166.46C599.167 166.46 598.721 166.587 598.321 166.84C597.934 167.093 597.494 167.467 597.001 167.96V175H595.361ZM609.578 179.48C608.392 179.48 607.425 179.253 606.678 178.8C605.932 178.347 605.558 177.7 605.558 176.86C605.558 176.447 605.685 176.047 605.938 175.66C606.192 175.287 606.538 174.953 606.978 174.66V174.58C606.738 174.433 606.532 174.227 606.358 173.96C606.198 173.693 606.118 173.373 606.118 173C606.118 172.587 606.232 172.227 606.458 171.92C606.685 171.613 606.925 171.373 607.178 171.2V171.12C606.858 170.853 606.565 170.493 606.298 170.04C606.045 169.587 605.918 169.073 605.918 168.5C605.918 167.793 606.085 167.18 606.418 166.66C606.752 166.14 607.198 165.74 607.758 165.46C608.318 165.18 608.925 165.04 609.578 165.04C609.845 165.04 610.098 165.067 610.338 165.12C610.578 165.16 610.785 165.213 610.958 165.28H614.338V166.54H612.338C612.565 166.753 612.752 167.04 612.898 167.4C613.058 167.747 613.138 168.127 613.138 168.54C613.138 169.233 612.978 169.833 612.658 170.34C612.338 170.847 611.912 171.24 611.378 171.52C610.845 171.787 610.245 171.92 609.578 171.92C609.058 171.92 608.572 171.807 608.118 171.58C607.945 171.727 607.798 171.893 607.678 172.08C607.558 172.253 607.498 172.473 607.498 172.74C607.498 173.047 607.618 173.3 607.858 173.5C608.112 173.7 608.565 173.8 609.218 173.8H611.098C612.232 173.8 613.078 173.987 613.638 174.36C614.212 174.72 614.498 175.307 614.498 176.12C614.498 176.72 614.298 177.273 613.898 177.78C613.498 178.287 612.932 178.693 612.198 179C611.465 179.32 610.592 179.48 609.578 179.48ZM609.578 170.82C610.138 170.82 610.618 170.613 611.018 170.2C611.432 169.773 611.638 169.207 611.638 168.5C611.638 167.793 611.438 167.24 611.038 166.84C610.638 166.44 610.152 166.24 609.578 166.24C609.005 166.24 608.518 166.44 608.118 166.84C607.718 167.24 607.518 167.793 607.518 168.5C607.518 169.207 607.718 169.773 608.118 170.2C608.532 170.613 609.018 170.82 609.578 170.82ZM609.818 178.34C610.752 178.34 611.498 178.133 612.058 177.72C612.618 177.32 612.898 176.867 612.898 176.36C612.898 175.907 612.725 175.593 612.378 175.42C612.045 175.247 611.565 175.16 610.938 175.16H609.258C609.072 175.16 608.865 175.147 608.638 175.12C608.425 175.093 608.212 175.053 607.998 175C607.652 175.253 607.398 175.52 607.238 175.8C607.078 176.08 606.998 176.36 606.998 176.64C606.998 177.16 607.245 177.573 607.738 177.88C608.245 178.187 608.938 178.34 609.818 178.34ZM622.94 175L618.74 161.88H620.52L622.62 168.96C622.86 169.733 623.067 170.46 623.24 171.14C623.427 171.807 623.647 172.527 623.9 173.3H623.98C624.22 172.527 624.434 171.807 624.62 171.14C624.807 170.46 625.014 169.733 625.24 168.96L627.34 161.88H629.04L624.88 175H622.94ZM634.16 175.24C633.374 175.24 632.634 175.04 631.94 174.64C631.26 174.24 630.707 173.66 630.28 172.9C629.867 172.14 629.66 171.227 629.66 170.16C629.66 169.067 629.867 168.14 630.28 167.38C630.707 166.62 631.26 166.04 631.94 165.64C632.634 165.24 633.374 165.04 634.16 165.04C634.96 165.04 635.7 165.24 636.38 165.64C637.06 166.04 637.607 166.62 638.02 167.38C638.447 168.14 638.66 169.067 638.66 170.16C638.66 171.227 638.447 172.14 638.02 172.9C637.607 173.66 637.06 174.24 636.38 174.64C635.7 175.04 634.96 175.24 634.16 175.24ZM634.16 173.88C635 173.88 635.674 173.54 636.18 172.86C636.7 172.167 636.96 171.267 636.96 170.16C636.96 169.04 636.7 168.133 636.18 167.44C635.674 166.747 635 166.4 634.16 166.4C633.334 166.4 632.66 166.747 632.14 167.44C631.62 168.133 631.36 169.04 631.36 170.16C631.36 171.267 631.62 172.167 632.14 172.86C632.66 173.54 633.334 173.88 634.16 173.88ZM642.96 175.24C642.347 175.24 641.9 175.053 641.62 174.68C641.353 174.293 641.22 173.747 641.22 173.04V160.76H642.86V173.16C642.86 173.413 642.907 173.6 643 173.72C643.093 173.827 643.2 173.88 643.32 173.88C643.373 173.88 643.42 173.88 643.46 173.88C643.513 173.867 643.587 173.853 643.68 173.84L643.9 175.08C643.793 175.133 643.667 175.173 643.52 175.2C643.373 175.227 643.187 175.24 642.96 175.24ZM649.158 175.24C648.131 175.24 647.378 174.92 646.898 174.28C646.418 173.627 646.178 172.68 646.178 171.44V165.28H647.838V171.22C647.838 172.127 647.978 172.787 648.258 173.2C648.551 173.613 649.018 173.82 649.658 173.82C650.164 173.82 650.611 173.693 650.998 173.44C651.398 173.173 651.824 172.753 652.278 172.18V165.28H653.918V175H652.558L652.418 173.48H652.358C651.904 174.013 651.424 174.44 650.918 174.76C650.411 175.08 649.824 175.24 649.158 175.24ZM657.197 175V165.28H658.557L658.697 166.68H658.757C659.183 166.213 659.65 165.827 660.157 165.52C660.663 165.2 661.203 165.04 661.777 165.04C662.523 165.04 663.103 165.207 663.517 165.54C663.943 165.86 664.257 166.313 664.457 166.9C664.963 166.353 665.477 165.907 665.997 165.56C666.517 165.213 667.07 165.04 667.657 165.04C668.657 165.04 669.397 165.367 669.877 166.02C670.37 166.66 670.617 167.6 670.617 168.84V175H668.977V169.06C668.977 168.153 668.83 167.493 668.537 167.08C668.243 166.667 667.79 166.46 667.177 166.46C666.457 166.46 665.643 166.96 664.737 167.96V175H663.097V169.06C663.097 168.153 662.95 167.493 662.657 167.08C662.363 166.667 661.903 166.46 661.277 166.46C660.557 166.46 659.743 166.96 658.837 167.96V175H657.197ZM677.719 175.24C676.852 175.24 676.065 175.04 675.359 174.64C674.652 174.227 674.092 173.64 673.679 172.88C673.265 172.12 673.059 171.213 673.059 170.16C673.059 169.093 673.265 168.18 673.679 167.42C674.105 166.66 674.652 166.073 675.319 165.66C675.985 165.247 676.685 165.04 677.419 165.04C678.659 165.04 679.612 165.453 680.279 166.28C680.959 167.107 681.299 168.213 681.299 169.6C681.299 169.773 681.292 169.947 681.279 170.12C681.279 170.28 681.265 170.42 681.239 170.54H674.679C674.745 171.567 675.065 172.387 675.639 173C676.225 173.613 676.985 173.92 677.919 173.92C678.385 173.92 678.812 173.853 679.199 173.72C679.599 173.573 679.979 173.387 680.339 173.16L680.919 174.24C680.505 174.507 680.032 174.74 679.499 174.94C678.979 175.14 678.385 175.24 677.719 175.24ZM674.659 169.36H679.859C679.859 168.373 679.645 167.627 679.219 167.12C678.805 166.6 678.219 166.34 677.459 166.34C676.779 166.34 676.165 166.607 675.619 167.14C675.085 167.66 674.765 168.4 674.659 169.36Z" fill="white"/>
</g>
<defs>
<filter id="filter0_d_2354_379" x="-20" y="-16" width="1160" height="256" filterUnits="userSpaceOnUse" color-interpolation-filters="sRGB">
<feFlood flood-opacity="0" result="BackgroundImageFix"/>
<feColorMatrix in="SourceAlpha" type="matrix" values="0 0 0 0 0 0 0 0 0 0 0 0 0 0 0 0 0 0 127 0" result="hardAlpha"/>
<feOffset dy="4"/>
<feGaussianBlur stdDeviation="10"/>
<feColorMatrix type="matrix" values="0 0 0 0 0.337255 0 0 0 0 0.486275 0 0 0 0 0.678431 0 0 0 0.2 0"/>
<feBlend mode="normal" in2="BackgroundImageFix" result="effect1_dropShadow_2354_379"/>
<feBlend mode="normal" in="SourceGraphic" in2="effect1_dropShadow_2354_379" result="shape"/>
</filter>
<filter id="filter1_bi_2354_379" x="-5.7699" y="30.2301" width="1131.54" height="191.54" filterUnits="userSpaceOnUse" color-interpolation-filters="sRGB">
<feFlood flood-opacity="0" result="BackgroundImageFix"/>
<feGaussianBlur in="BackgroundImage" stdDeviation="2.88495"/>
<feComposite in2="SourceAlpha" operator="in" result="effect1_backgroundBlur_2354_379"/>
<feBlend mode="normal" in="SourceGraphic" in2="effect1_backgroundBlur_2354_379" result="shape"/>
<feColorMatrix in="SourceAlpha" type="matrix" values="0 0 0 0 0 0 0 0 0 0 0 0 0 0 0 0 0 0 127 0" result="hardAlpha"/>
<feOffset/>
<feGaussianBlur stdDeviation="2.66303"/>
<feComposite in2="hardAlpha" operator="arithmetic" k2="-1" k3="1"/>
<feColorMatrix type="matrix" values="0 0 0 0 0.980392 0 0 0 0 0.290196 0 0 0 0 0.160784 0 0 0 0.1 0"/>
<feBlend mode="normal" in2="shape" result="effect2_innerShadow_2354_379"/>
</filter>
<radialGradient id="paint0_radial_2354_379" cx="0" cy="0" r="1" gradientUnits="userSpaceOnUse" gradientTransform="translate(560 108) rotate(90) scale(213.207 490)">
<stop stop-color="#1C2951"/>
<stop offset="1" stop-color="#111B37"/>
</radialGradient>
<linearGradient id="paint1_linear_2354_379" x1="560" y1="-27" x2="560.13" y2="208" gradientUnits="userSpaceOnUse">
<stop offset="0.280851" stop-color="#FDDED9" stop-opacity="0.7"/>
<stop offset="0.821277" stop-color="#FFEEEB" stop-opacity="0"/>
</linearGradient>
<linearGradient id="paint2_linear_2354_379" x1="1120" y1="108.999" x2="4.59077e-06" y2="109" gradientUnits="userSpaceOnUse">
<stop stop-color="#FA4A29" stop-opacity="0.1"/>
<stop offset="0.189286" stop-color="#FA4A29"/>
<stop offset="0.8125" stop-color="#FA4A29"/>
<stop offset="1" stop-color="#FA4A29" stop-opacity="0.1"/>
</linearGradient>
<clipPath id="clip0_2354_379">
<rect width="1120" height="216" fill="white"/>
</clipPath>
</defs>
</svg>
